<mxfile host="65bd71144e">
    <diagram id="afJgA6YJ7kgfRQqBY9Ge" name="Page-1">
        <mxGraphModel dx="8192" dy="5266" grid="1" gridSize="10" guides="1" tooltips="1" connect="1" arrows="1" fold="1" page="1" pageScale="1" pageWidth="1654" pageHeight="2336" background="none" math="0" shadow="0">
            <root>
                <mxCell id="0"/>
                <mxCell id="1" parent="0"/>
                <mxCell id="501" value="&lt;span style=&quot;font-size: 30px;&quot;&gt;fontData.c&lt;/span&gt;" style="text;html=1;strokeColor=none;fillColor=#333333;align=center;verticalAlign=middle;whiteSpace=wrap;rounded=0;strokeWidth=4;labelBackgroundColor=none;" parent="1" vertex="1">
                    <mxGeometry x="-4068.8599999999997" y="-2310" width="60" height="30" as="geometry"/>
                </mxCell>
                <mxCell id="528" style="edgeStyle=none;html=1;labelBackgroundColor=none;" edge="1" parent="1" source="502" target="503">
                    <mxGeometry relative="1" as="geometry"/>
                </mxCell>
                <mxCell id="502" value="&lt;div style=&quot;color: rgb(204, 204, 204); font-family: Menlo, Monaco, &amp;quot;Courier New&amp;quot;, monospace; line-height: 18px; font-size: 12px;&quot;&gt;&lt;div style=&quot;line-height: 18px;&quot;&gt;&lt;span style=&quot;color: #dcdcaa;&quot;&gt;fontDataConstuctor()&lt;/span&gt;&lt;/div&gt;&lt;/div&gt;" style="strokeWidth=2;html=1;shape=mxgraph.flowchart.start_1;whiteSpace=wrap;labelBackgroundColor=none;flipH=1;flipV=1;shadow=0;labelBorderColor=none;fillColor=#333333;fontSize=12;" vertex="1" parent="1">
                    <mxGeometry x="-4900" y="-2250" width="170" height="60" as="geometry"/>
                </mxCell>
                <mxCell id="515" style="edgeStyle=none;html=1;entryX=0.5;entryY=0;entryDx=0;entryDy=0;labelBackgroundColor=none;" edge="1" parent="1" source="503" target="506">
                    <mxGeometry relative="1" as="geometry"/>
                </mxCell>
                <mxCell id="503" value="&lt;div style=&quot;font-family: Menlo, Monaco, &amp;quot;Courier New&amp;quot;, monospace; font-weight: normal; font-size: 12px; line-height: 18px;&quot;&gt;&lt;div style=&quot;line-height: 18px; font-size: 12px;&quot;&gt;&lt;div style=&quot;line-height: 18px; font-size: 12px;&quot;&gt;&lt;div style=&quot;line-height: 18px;&quot;&gt;&lt;div style=&quot;line-height: 18px;&quot;&gt;&lt;span style=&quot;color: rgb(156, 220, 254);&quot;&gt;*fontData&lt;/span&gt; &lt;span style=&quot;color: rgb(212, 212, 212);&quot;&gt;=&lt;/span&gt;&lt;font color=&quot;#cccccc&quot;&gt;&amp;nbsp;&lt;/font&gt;&lt;span style=&quot;color: rgb(220, 220, 170);&quot;&gt;malloc&lt;/span&gt;&lt;font color=&quot;#cccccc&quot;&gt;(&lt;/font&gt;&lt;/div&gt;&lt;div style=&quot;line-height: 18px;&quot;&gt;&lt;span style=&quot;color: rgb(86, 156, 214);&quot;&gt;sizeof&lt;/span&gt;&lt;font color=&quot;#cccccc&quot;&gt;(&lt;/font&gt;&lt;span style=&quot;color: rgb(78, 201, 176);&quot;&gt;fontData_t&lt;/span&gt;&lt;font color=&quot;#cccccc&quot;&gt;))&lt;/font&gt;&lt;/div&gt;&lt;/div&gt;&lt;/div&gt;&lt;/div&gt;&lt;/div&gt;" style="rounded=1;whiteSpace=wrap;html=1;labelBackgroundColor=none;flipH=1;flipV=1;shadow=0;labelBorderColor=none;fillColor=#333333;fontSize=12;" vertex="1" parent="1">
                    <mxGeometry x="-4905" y="-2160" width="180" height="60" as="geometry"/>
                </mxCell>
                <mxCell id="504" value="yes" style="edgeStyle=none;html=1;labelBackgroundColor=none;fontSize=12;" edge="1" parent="1" source="506" target="508">
                    <mxGeometry x="0.0127" y="19" relative="1" as="geometry">
                        <mxPoint as="offset"/>
                    </mxGeometry>
                </mxCell>
                <mxCell id="505" value="no" style="edgeStyle=none;html=1;entryX=0.5;entryY=0;entryDx=0;entryDy=0;labelBackgroundColor=none;" edge="1" parent="1" source="506" target="510">
                    <mxGeometry x="-0.0659" y="16" relative="1" as="geometry">
                        <mxPoint as="offset"/>
                        <mxPoint x="-4819" y="-1860" as="targetPoint"/>
                    </mxGeometry>
                </mxCell>
                <mxCell id="506" value="&lt;div style=&quot;font-family: Menlo, Monaco, &amp;quot;Courier New&amp;quot;, monospace; font-weight: normal; font-size: 12px; line-height: 18px;&quot;&gt;&lt;span style=&quot;color: rgb(204, 204, 204); font-size: 12px;&quot;&gt;&lt;/span&gt;&lt;div style=&quot;line-height: 18px; font-size: 12px;&quot;&gt;&lt;span style=&quot;color: rgb(197, 134, 192); font-size: 12px;&quot;&gt;if&lt;/span&gt;&lt;span style=&quot;color: rgb(204, 204, 204); font-size: 12px;&quot;&gt;(&lt;/span&gt;&lt;/div&gt;&lt;div style=&quot;line-height: 18px; font-size: 12px;&quot;&gt;&lt;span style=&quot;color: rgb(156, 220, 254);&quot;&gt;!fontData&lt;/span&gt;&lt;/div&gt;&lt;div style=&quot;line-height: 18px; font-size: 12px;&quot;&gt;&lt;span style=&quot;color: rgb(204, 204, 204);&quot;&gt;)&lt;/span&gt;&lt;br&gt;&lt;/div&gt;&lt;/div&gt;" style="rhombus;whiteSpace=wrap;html=1;labelBackgroundColor=none;flipH=1;flipV=1;shadow=0;labelBorderColor=none;fillColor=#333333;fontSize=12;" vertex="1" parent="1">
                    <mxGeometry x="-4916.375" y="-2070.5" width="202.75" height="163" as="geometry"/>
                </mxCell>
                <mxCell id="507" style="edgeStyle=none;html=1;entryX=0.5;entryY=1;entryDx=0;entryDy=0;entryPerimeter=0;labelBackgroundColor=none;fontSize=12;" edge="1" parent="1" source="508" target="509">
                    <mxGeometry relative="1" as="geometry"/>
                </mxCell>
                <mxCell id="508" value="&lt;div style=&quot;color: rgb(204, 204, 204); font-family: Menlo, Monaco, &amp;quot;Courier New&amp;quot;, monospace; line-height: 18px; font-size: 12px;&quot;&gt;&lt;span style=&quot;color: rgb(220, 220, 170); font-size: 12px;&quot;&gt;ErrorHandler&lt;/span&gt;()&lt;/div&gt;" style="shape=process;whiteSpace=wrap;html=1;backgroundOutline=1;labelBackgroundColor=none;flipH=1;flipV=1;shadow=0;labelBorderColor=none;fillColor=#333333;fontSize=12;" vertex="1" parent="1">
                    <mxGeometry x="-4655.24" y="-2014.5" width="150" height="58" as="geometry"/>
                </mxCell>
                <mxCell id="509" value="&lt;div style=&quot;color: rgb(204, 204, 204); font-family: Menlo, Monaco, &amp;quot;Courier New&amp;quot;, monospace; line-height: 18px; font-size: 12px;&quot;&gt;&lt;div style=&quot;line-height: 18px; font-size: 12px;&quot;&gt;&lt;div style=&quot;line-height: 18px; font-size: 12px;&quot;&gt;&lt;div style=&quot;line-height: 18px; font-size: 12px;&quot;&gt;&lt;div style=&quot;line-height: 18px; font-size: 12px;&quot;&gt;&lt;div style=&quot;line-height: 18px;&quot;&gt;&lt;div style=&quot;line-height: 18px;&quot;&gt;&lt;span style=&quot;color: #569cd6;&quot;&gt;NULL&lt;/span&gt;&lt;/div&gt;&lt;/div&gt;&lt;/div&gt;&lt;/div&gt;&lt;/div&gt;&lt;/div&gt;&lt;/div&gt;" style="strokeWidth=2;html=1;shape=mxgraph.flowchart.terminator;whiteSpace=wrap;labelBackgroundColor=none;flipH=1;flipV=1;shadow=0;labelBorderColor=none;fillColor=#333333;fontSize=12;" vertex="1" parent="1">
                    <mxGeometry x="-4695.24" y="-1919.5" width="230" height="60" as="geometry"/>
                </mxCell>
                <mxCell id="516" value="" style="edgeStyle=none;html=1;labelBackgroundColor=none;" edge="1" parent="1" source="510" target="512">
                    <mxGeometry relative="1" as="geometry"/>
                </mxCell>
                <mxCell id="510" value="&lt;div style=&quot;font-family: Menlo, Monaco, &amp;quot;Courier New&amp;quot;, monospace; font-weight: normal; font-size: 12px; line-height: 18px;&quot;&gt;&lt;div style=&quot;line-height: 18px; font-size: 12px;&quot;&gt;&lt;div style=&quot;line-height: 18px; font-size: 12px;&quot;&gt;&lt;div style=&quot;line-height: 18px;&quot;&gt;&lt;div style=&quot;line-height: 18px;&quot;&gt;&lt;div style=&quot;line-height: 18px;&quot;&gt;&lt;div style=&quot;line-height: 18px;&quot;&gt;&lt;div style=&quot;line-height: 18px;&quot;&gt;&lt;div style=&quot;color: rgb(204, 204, 204); line-height: 18px;&quot;&gt;&lt;span style=&quot;color: #9cdcfe;&quot;&gt;fontData&lt;/span&gt;-&amp;gt;&lt;span style=&quot;color: #9cdcfe;&quot;&gt;free&lt;/span&gt; &lt;span style=&quot;color: #d4d4d4;&quot;&gt;=&lt;/span&gt; &lt;span style=&quot;color: #dcdcaa;&quot;&gt;_free&lt;/span&gt;&lt;/div&gt;&lt;/div&gt;&lt;/div&gt;&lt;/div&gt;&lt;/div&gt;&lt;/div&gt;&lt;/div&gt;&lt;/div&gt;&lt;/div&gt;" style="rounded=1;whiteSpace=wrap;html=1;labelBackgroundColor=none;flipH=1;flipV=1;shadow=0;labelBorderColor=none;fillColor=#333333;fontSize=12;" vertex="1" parent="1">
                    <mxGeometry x="-4905" y="-1858" width="180" height="60" as="geometry"/>
                </mxCell>
                <mxCell id="519" style="edgeStyle=none;html=1;labelBackgroundColor=none;" edge="1" parent="1" source="511" target="513">
                    <mxGeometry relative="1" as="geometry"/>
                </mxCell>
                <mxCell id="511" value="&lt;div style=&quot;font-family: Menlo, Monaco, &amp;quot;Courier New&amp;quot;, monospace; font-weight: normal; font-size: 12px; line-height: 18px;&quot;&gt;&lt;div style=&quot;line-height: 18px; font-size: 12px;&quot;&gt;&lt;div style=&quot;line-height: 18px; font-size: 12px;&quot;&gt;&lt;div style=&quot;line-height: 18px;&quot;&gt;&lt;div style=&quot;line-height: 18px;&quot;&gt;&lt;div style=&quot;line-height: 18px;&quot;&gt;&lt;div style=&quot;line-height: 18px;&quot;&gt;&lt;div style=&quot;line-height: 18px;&quot;&gt;&lt;div style=&quot;color: rgb(204, 204, 204); line-height: 18px;&quot;&gt;&lt;div style=&quot;line-height: 18px;&quot;&gt;&lt;span style=&quot;color: #9cdcfe;&quot;&gt;fontData&lt;/span&gt;-&amp;gt;&lt;span style=&quot;color: #9cdcfe;&quot;&gt;insert&lt;/span&gt; &lt;span style=&quot;color: #d4d4d4;&quot;&gt;=&lt;/span&gt; &lt;span style=&quot;color: #dcdcaa;&quot;&gt;_insert&lt;/span&gt;&lt;/div&gt;&lt;/div&gt;&lt;/div&gt;&lt;/div&gt;&lt;/div&gt;&lt;/div&gt;&lt;/div&gt;&lt;/div&gt;&lt;/div&gt;&lt;/div&gt;" style="rounded=1;whiteSpace=wrap;html=1;labelBackgroundColor=none;flipH=1;flipV=1;shadow=0;labelBorderColor=none;fillColor=#333333;fontSize=12;" vertex="1" parent="1">
                    <mxGeometry x="-4905" y="-1683" width="180" height="60" as="geometry"/>
                </mxCell>
                <mxCell id="518" style="edgeStyle=none;html=1;entryX=0.5;entryY=0;entryDx=0;entryDy=0;labelBackgroundColor=none;" edge="1" parent="1" source="512" target="511">
                    <mxGeometry relative="1" as="geometry">
                        <mxPoint x="-4820" y="-1680" as="targetPoint"/>
                    </mxGeometry>
                </mxCell>
                <mxCell id="512" value="&lt;div style=&quot;font-family: Menlo, Monaco, &amp;quot;Courier New&amp;quot;, monospace; font-weight: normal; font-size: 12px; line-height: 18px;&quot;&gt;&lt;div style=&quot;line-height: 18px; font-size: 12px;&quot;&gt;&lt;div style=&quot;line-height: 18px; font-size: 12px;&quot;&gt;&lt;div style=&quot;line-height: 18px;&quot;&gt;&lt;div style=&quot;line-height: 18px;&quot;&gt;&lt;div style=&quot;line-height: 18px;&quot;&gt;&lt;div style=&quot;line-height: 18px;&quot;&gt;&lt;div style=&quot;line-height: 18px;&quot;&gt;&lt;div style=&quot;color: rgb(204, 204, 204); line-height: 18px;&quot;&gt;&lt;div style=&quot;line-height: 18px;&quot;&gt;&lt;span style=&quot;color: #9cdcfe;&quot;&gt;fontData&lt;/span&gt;-&amp;gt;&lt;span style=&quot;color: #9cdcfe;&quot;&gt;lookup&lt;/span&gt; &lt;span style=&quot;color: #d4d4d4;&quot;&gt;=&lt;/span&gt; &lt;span style=&quot;color: #dcdcaa;&quot;&gt;_lookup&lt;/span&gt;&lt;/div&gt;&lt;/div&gt;&lt;/div&gt;&lt;/div&gt;&lt;/div&gt;&lt;/div&gt;&lt;/div&gt;&lt;/div&gt;&lt;/div&gt;&lt;/div&gt;" style="rounded=1;whiteSpace=wrap;html=1;labelBackgroundColor=none;flipH=1;flipV=1;shadow=0;labelBorderColor=none;fillColor=#333333;fontSize=12;" vertex="1" parent="1">
                    <mxGeometry x="-4905" y="-1769" width="180" height="60" as="geometry"/>
                </mxCell>
                <mxCell id="520" style="edgeStyle=none;html=1;entryX=0.5;entryY=0;entryDx=0;entryDy=0;labelBackgroundColor=none;" edge="1" parent="1" source="513" target="514">
                    <mxGeometry relative="1" as="geometry"/>
                </mxCell>
                <mxCell id="513" value="&lt;div style=&quot;font-family: Menlo, Monaco, &amp;quot;Courier New&amp;quot;, monospace; font-weight: normal; font-size: 12px; line-height: 18px;&quot;&gt;&lt;div style=&quot;line-height: 18px; font-size: 12px;&quot;&gt;&lt;div style=&quot;line-height: 18px; font-size: 12px;&quot;&gt;&lt;div style=&quot;line-height: 18px;&quot;&gt;&lt;div style=&quot;line-height: 18px;&quot;&gt;&lt;div style=&quot;line-height: 18px;&quot;&gt;&lt;div style=&quot;line-height: 18px;&quot;&gt;&lt;div style=&quot;line-height: 18px;&quot;&gt;&lt;div style=&quot;color: rgb(204, 204, 204); line-height: 18px;&quot;&gt;&lt;div style=&quot;line-height: 18px;&quot;&gt; &lt;span style=&quot;color: #9cdcfe;&quot;&gt;fontData&lt;/span&gt;-&amp;gt;&lt;span style=&quot;color: #9cdcfe;&quot;&gt;scale&lt;/span&gt; &lt;span style=&quot;color: #d4d4d4;&quot;&gt;=&lt;/span&gt; &lt;span style=&quot;color: #dcdcaa;&quot;&gt;_scale&lt;/span&gt;&lt;/div&gt;&lt;/div&gt;&lt;/div&gt;&lt;/div&gt;&lt;/div&gt;&lt;/div&gt;&lt;/div&gt;&lt;/div&gt;&lt;/div&gt;&lt;/div&gt;" style="rounded=1;whiteSpace=wrap;html=1;labelBackgroundColor=none;flipH=1;flipV=1;shadow=0;labelBorderColor=none;fillColor=#333333;fontSize=12;" vertex="1" parent="1">
                    <mxGeometry x="-4905" y="-1600" width="180" height="60" as="geometry"/>
                </mxCell>
                <mxCell id="525" style="edgeStyle=none;html=1;labelBackgroundColor=none;" edge="1" parent="1" source="514" target="521">
                    <mxGeometry relative="1" as="geometry"/>
                </mxCell>
                <mxCell id="514" value="&lt;div style=&quot;font-family: Menlo, Monaco, &amp;quot;Courier New&amp;quot;, monospace; font-weight: normal; font-size: 12px; line-height: 18px;&quot;&gt;&lt;div style=&quot;line-height: 18px; font-size: 12px;&quot;&gt;&lt;div style=&quot;line-height: 18px; font-size: 12px;&quot;&gt;&lt;div style=&quot;line-height: 18px;&quot;&gt;&lt;div style=&quot;line-height: 18px;&quot;&gt;&lt;div style=&quot;line-height: 18px;&quot;&gt;&lt;div style=&quot;line-height: 18px;&quot;&gt;&lt;div style=&quot;line-height: 18px;&quot;&gt;&lt;div style=&quot;color: rgb(204, 204, 204); line-height: 18px;&quot;&gt;&lt;div style=&quot;line-height: 18px;&quot;&gt;&lt;span style=&quot;color: #9cdcfe;&quot;&gt;fontData&lt;/span&gt;-&amp;gt;&lt;span style=&quot;color: #9cdcfe;&quot;&gt;parse&lt;/span&gt; &lt;span style=&quot;color: #d4d4d4;&quot;&gt;=&lt;/span&gt; &lt;span style=&quot;color: #dcdcaa;&quot;&gt;_parse&lt;/span&gt;&lt;/div&gt;&lt;/div&gt;&lt;/div&gt;&lt;/div&gt;&lt;/div&gt;&lt;/div&gt;&lt;/div&gt;&lt;/div&gt;&lt;/div&gt;&lt;/div&gt;" style="rounded=1;whiteSpace=wrap;html=1;labelBackgroundColor=none;flipH=1;flipV=1;shadow=0;labelBorderColor=none;fillColor=#333333;fontSize=12;" vertex="1" parent="1">
                    <mxGeometry x="-4905" y="-1510" width="180" height="60" as="geometry"/>
                </mxCell>
                <mxCell id="524" value="yes" style="edgeStyle=none;html=1;entryX=0.5;entryY=0;entryDx=0;entryDy=0;labelBackgroundColor=none;" edge="1" parent="1" source="521" target="522">
                    <mxGeometry x="-0.8182" y="15" relative="1" as="geometry">
                        <mxPoint as="offset"/>
                    </mxGeometry>
                </mxCell>
                <mxCell id="527" value="no" style="edgeStyle=none;html=1;entryX=1;entryY=0.5;entryDx=0;entryDy=0;entryPerimeter=0;labelBackgroundColor=none;" edge="1" parent="1" source="521" target="526">
                    <mxGeometry x="-0.1896" y="15" relative="1" as="geometry">
                        <mxPoint as="offset"/>
                    </mxGeometry>
                </mxCell>
                <mxCell id="521" value="&lt;div style=&quot;font-family: Menlo, Monaco, &amp;quot;Courier New&amp;quot;, monospace; font-weight: normal; font-size: 12px; line-height: 18px;&quot;&gt;&lt;span style=&quot;color: rgb(204, 204, 204); font-size: 12px;&quot;&gt;&lt;/span&gt;&lt;div style=&quot;line-height: 18px; font-size: 12px;&quot;&gt;&lt;div style=&quot;color: rgb(204, 204, 204); line-height: 18px;&quot;&gt;&lt;span style=&quot;color: #c586c0;&quot;&gt;for&lt;/span&gt; (&lt;/div&gt;&lt;div style=&quot;color: rgb(204, 204, 204); line-height: 18px;&quot;&gt;&lt;span style=&quot;color: #569cd6;&quot;&gt;int&lt;/span&gt; &lt;span style=&quot;color: #9cdcfe;&quot;&gt;i&lt;/span&gt; &lt;span style=&quot;color: #d4d4d4;&quot;&gt;=&lt;/span&gt; &lt;span style=&quot;color: #b5cea8;&quot;&gt;0&lt;/span&gt;; &lt;span style=&quot;color: #9cdcfe;&quot;&gt;i&lt;/span&gt; &lt;span style=&quot;color: #d4d4d4;&quot;&gt;&amp;lt;&lt;/span&gt; &lt;span style=&quot;color: #569cd6;&quot;&gt;ASCII_CHARACTERS&lt;/span&gt;;&lt;/div&gt;&lt;div style=&quot;color: rgb(204, 204, 204); line-height: 18px;&quot;&gt;&amp;nbsp; &lt;span style=&quot;color: #9cdcfe;&quot;&gt;i&lt;/span&gt;&lt;span style=&quot;color: #d4d4d4;&quot;&gt;++&lt;/span&gt;)&lt;/div&gt;&lt;/div&gt;&lt;/div&gt;" style="rhombus;whiteSpace=wrap;html=1;labelBackgroundColor=none;flipH=1;flipV=1;shadow=0;labelBorderColor=none;fillColor=#333333;fontSize=12;" vertex="1" parent="1">
                    <mxGeometry x="-4916.375" y="-1417" width="202.75" height="163" as="geometry"/>
                </mxCell>
                <mxCell id="523" style="edgeStyle=none;html=1;entryX=0;entryY=0.5;entryDx=0;entryDy=0;labelBackgroundColor=none;" edge="1" parent="1" source="522" target="521">
                    <mxGeometry relative="1" as="geometry">
                        <Array as="points">
                            <mxPoint x="-4950" y="-1190"/>
                            <mxPoint x="-4950" y="-1335"/>
                        </Array>
                    </mxGeometry>
                </mxCell>
                <mxCell id="522" value="&lt;div style=&quot;font-family: Menlo, Monaco, &amp;quot;Courier New&amp;quot;, monospace; font-weight: normal; font-size: 12px; line-height: 18px;&quot;&gt;&lt;div style=&quot;line-height: 18px; font-size: 12px;&quot;&gt;&lt;div style=&quot;line-height: 18px; font-size: 12px;&quot;&gt;&lt;div style=&quot;line-height: 18px;&quot;&gt;&lt;div style=&quot;line-height: 18px;&quot;&gt;&lt;div style=&quot;line-height: 18px;&quot;&gt;&lt;div style=&quot;line-height: 18px;&quot;&gt;&lt;div style=&quot;line-height: 18px;&quot;&gt;&lt;div style=&quot;color: rgb(204, 204, 204); line-height: 18px;&quot;&gt;&lt;div style=&quot;line-height: 18px;&quot;&gt;&lt;div style=&quot;line-height: 18px;&quot;&gt;&lt;span style=&quot;color: #9cdcfe;&quot;&gt;fontData&lt;/span&gt;-&amp;gt;&lt;span style=&quot;color: #9cdcfe;&quot;&gt;table&lt;/span&gt;[&lt;span style=&quot;color: #9cdcfe;&quot;&gt;i&lt;/span&gt;] &lt;span style=&quot;color: #d4d4d4;&quot;&gt;=&lt;/span&gt; &lt;span style=&quot;color: #569cd6;&quot;&gt;NULL&lt;/span&gt;&lt;/div&gt;&lt;/div&gt;&lt;/div&gt;&lt;/div&gt;&lt;/div&gt;&lt;/div&gt;&lt;/div&gt;&lt;/div&gt;&lt;/div&gt;&lt;/div&gt;&lt;/div&gt;" style="rounded=1;whiteSpace=wrap;html=1;labelBackgroundColor=none;flipH=1;flipV=1;shadow=0;labelBorderColor=none;fillColor=#333333;fontSize=12;" vertex="1" parent="1">
                    <mxGeometry x="-4905" y="-1210" width="180" height="60" as="geometry"/>
                </mxCell>
                <mxCell id="526" value="&lt;div style=&quot;color: rgb(204, 204, 204); font-family: Menlo, Monaco, &amp;quot;Courier New&amp;quot;, monospace; line-height: 18px; font-size: 12px;&quot;&gt;&lt;div style=&quot;line-height: 18px; font-size: 12px;&quot;&gt;&lt;div style=&quot;line-height: 18px; font-size: 12px;&quot;&gt;&lt;div style=&quot;line-height: 18px; font-size: 12px;&quot;&gt;&lt;div style=&quot;line-height: 18px; font-size: 12px;&quot;&gt;&lt;div style=&quot;line-height: 18px;&quot;&gt;&lt;div style=&quot;line-height: 18px;&quot;&gt;&lt;span style=&quot;color: rgb(156, 220, 254);&quot;&gt;fontData&lt;/span&gt;&lt;br&gt;&lt;/div&gt;&lt;/div&gt;&lt;/div&gt;&lt;/div&gt;&lt;/div&gt;&lt;/div&gt;&lt;/div&gt;" style="strokeWidth=2;html=1;shape=mxgraph.flowchart.terminator;whiteSpace=wrap;labelBackgroundColor=none;flipH=1;flipV=1;shadow=0;labelBorderColor=none;fillColor=#333333;fontSize=12;" vertex="1" parent="1">
                    <mxGeometry x="-4680" y="-1365.5" width="230" height="60" as="geometry"/>
                </mxCell>
                <mxCell id="653" style="edgeStyle=none;html=1;entryX=0.5;entryY=0;entryDx=0;entryDy=0;labelBackgroundColor=none;" edge="1" parent="1" source="529" target="626">
                    <mxGeometry relative="1" as="geometry"/>
                </mxCell>
                <mxCell id="529" value="&lt;div style=&quot;color: rgb(204, 204, 204); font-family: Menlo, Monaco, &amp;quot;Courier New&amp;quot;, monospace; line-height: 18px; font-size: 12px;&quot;&gt;&lt;div style=&quot;line-height: 18px;&quot;&gt;&lt;div style=&quot;background-color: rgb(31, 31, 31); line-height: 18px;&quot;&gt;&lt;span style=&quot;color: #dcdcaa;&quot;&gt;_free()&lt;/span&gt;&lt;/div&gt;&lt;/div&gt;&lt;/div&gt;" style="strokeWidth=2;html=1;shape=mxgraph.flowchart.start_1;whiteSpace=wrap;labelBackgroundColor=none;flipH=1;flipV=1;shadow=0;labelBorderColor=none;fillColor=#333333;fontSize=12;" vertex="1" parent="1">
                    <mxGeometry x="-2974.76" y="-2321.5" width="170" height="60" as="geometry"/>
                </mxCell>
                <mxCell id="577" style="edgeStyle=none;html=1;entryX=0.5;entryY=0;entryDx=0;entryDy=0;labelBackgroundColor=none;" edge="1" parent="1" source="530" target="571">
                    <mxGeometry relative="1" as="geometry"/>
                </mxCell>
                <mxCell id="530" value="&lt;div style=&quot;color: rgb(204, 204, 204); font-family: Menlo, Monaco, &amp;quot;Courier New&amp;quot;, monospace; line-height: 18px; font-size: 12px;&quot;&gt;&lt;div style=&quot;line-height: 18px;&quot;&gt;&lt;div style=&quot;background-color: rgb(31, 31, 31); line-height: 18px;&quot;&gt;&lt;div style=&quot;line-height: 18px;&quot;&gt;&lt;span style=&quot;color: #dcdcaa;&quot;&gt;_lookup&lt;/span&gt;&lt;/div&gt;&lt;/div&gt;&lt;/div&gt;&lt;/div&gt;" style="strokeWidth=2;html=1;shape=mxgraph.flowchart.start_1;whiteSpace=wrap;labelBackgroundColor=none;flipH=1;flipV=1;shadow=0;labelBorderColor=none;fillColor=#333333;fontSize=12;" vertex="1" parent="1">
                    <mxGeometry x="-4900" y="-1045.5" width="170" height="60" as="geometry"/>
                </mxCell>
                <mxCell id="592" style="edgeStyle=none;html=1;labelBackgroundColor=none;" edge="1" parent="1" source="531" target="537">
                    <mxGeometry relative="1" as="geometry"/>
                </mxCell>
                <mxCell id="531" value="&lt;div style=&quot;color: rgb(204, 204, 204); font-family: Menlo, Monaco, &amp;quot;Courier New&amp;quot;, monospace; line-height: 18px; font-size: 12px;&quot;&gt;&lt;div style=&quot;line-height: 18px;&quot;&gt;&lt;div style=&quot;background-color: rgb(31, 31, 31); line-height: 18px;&quot;&gt;&lt;div style=&quot;line-height: 18px;&quot;&gt;&lt;span style=&quot;color: #dcdcaa;&quot;&gt;_insert&lt;/span&gt;&lt;/div&gt;&lt;/div&gt;&lt;/div&gt;&lt;/div&gt;" style="strokeWidth=2;html=1;shape=mxgraph.flowchart.start_1;whiteSpace=wrap;labelBackgroundColor=none;flipH=1;flipV=1;shadow=0;labelBorderColor=none;fillColor=#333333;fontSize=12;" vertex="1" parent="1">
                    <mxGeometry x="-3760" y="-2280" width="170" height="60" as="geometry"/>
                </mxCell>
                <mxCell id="622" style="edgeStyle=none;html=1;labelBackgroundColor=none;" edge="1" parent="1" source="532" target="595">
                    <mxGeometry relative="1" as="geometry"/>
                </mxCell>
                <mxCell id="532" value="&lt;div style=&quot;color: rgb(204, 204, 204); font-family: Menlo, Monaco, &amp;quot;Courier New&amp;quot;, monospace; line-height: 18px; font-size: 12px;&quot;&gt;&lt;div style=&quot;line-height: 18px;&quot;&gt;&lt;div style=&quot;background-color: rgb(31, 31, 31); line-height: 18px;&quot;&gt;&lt;div style=&quot;line-height: 18px;&quot;&gt;&lt;span style=&quot;color: #dcdcaa;&quot;&gt;_scale&lt;/span&gt;&lt;/div&gt;&lt;/div&gt;&lt;/div&gt;&lt;/div&gt;" style="strokeWidth=2;html=1;shape=mxgraph.flowchart.start_1;whiteSpace=wrap;labelBackgroundColor=none;flipH=1;flipV=1;shadow=0;labelBorderColor=none;fillColor=#333333;fontSize=12;" vertex="1" parent="1">
                    <mxGeometry x="-4320" y="-2260" width="170" height="60" as="geometry"/>
                </mxCell>
                <mxCell id="660" style="edgeStyle=none;html=1;entryX=0.5;entryY=0;entryDx=0;entryDy=0;labelBackgroundColor=none;" edge="1" parent="1" source="533" target="656">
                    <mxGeometry relative="1" as="geometry"/>
                </mxCell>
                <mxCell id="533" value="&lt;div style=&quot;color: rgb(204, 204, 204); font-family: Menlo, Monaco, &amp;quot;Courier New&amp;quot;, monospace; line-height: 18px; font-size: 12px;&quot;&gt;&lt;div style=&quot;line-height: 18px;&quot;&gt;&lt;div style=&quot;background-color: rgb(31, 31, 31); line-height: 18px;&quot;&gt;&lt;div style=&quot;line-height: 18px;&quot;&gt;&lt;span style=&quot;color: #dcdcaa;&quot;&gt;_parse()&lt;/span&gt;&lt;/div&gt;&lt;/div&gt;&lt;/div&gt;&lt;/div&gt;" style="strokeWidth=2;html=1;shape=mxgraph.flowchart.start_1;whiteSpace=wrap;labelBackgroundColor=none;flipH=1;flipV=1;shadow=0;labelBorderColor=none;fillColor=#333333;fontSize=12;" vertex="1" parent="1">
                    <mxGeometry x="-2350" y="-2310" width="170" height="60" as="geometry"/>
                </mxCell>
                <mxCell id="535" value="yes" style="edgeStyle=none;html=1;labelBackgroundColor=none;fontSize=12;" edge="1" parent="1" source="537" target="539">
                    <mxGeometry x="0.0127" y="19" relative="1" as="geometry">
                        <mxPoint as="offset"/>
                    </mxGeometry>
                </mxCell>
                <mxCell id="536" value="no" style="edgeStyle=none;html=1;entryX=0.5;entryY=0.991;entryDx=0;entryDy=0;labelBackgroundColor=none;entryPerimeter=0;" edge="1" parent="1" source="537" target="543">
                    <mxGeometry x="-0.0659" y="16" relative="1" as="geometry">
                        <mxPoint as="offset"/>
                        <mxPoint x="-3675" y="-1977.5" as="targetPoint"/>
                    </mxGeometry>
                </mxCell>
                <mxCell id="537" value="&lt;div style=&quot;font-family: Menlo, Monaco, &amp;quot;Courier New&amp;quot;, monospace; font-weight: normal; font-size: 12px; line-height: 18px;&quot;&gt;&lt;span style=&quot;color: rgb(204, 204, 204); font-size: 12px;&quot;&gt;&lt;/span&gt;&lt;div style=&quot;line-height: 18px; font-size: 12px;&quot;&gt;&lt;span style=&quot;color: rgb(197, 134, 192); font-size: 12px;&quot;&gt;if&lt;/span&gt;&lt;span style=&quot;color: rgb(204, 204, 204); font-size: 12px;&quot;&gt;(&lt;/span&gt;&lt;/div&gt;&lt;div style=&quot;line-height: 18px; font-size: 12px;&quot;&gt;&lt;span style=&quot;color: rgb(156, 220, 254);&quot;&gt;!&lt;/span&gt;&lt;span style=&quot;color: rgb(156, 220, 254); background-color: rgb(31, 31, 31);&quot;&gt;character&lt;/span&gt;&lt;/div&gt;&lt;div style=&quot;line-height: 18px; font-size: 12px;&quot;&gt;&lt;span style=&quot;color: rgb(204, 204, 204);&quot;&gt;)&lt;/span&gt;&lt;br&gt;&lt;/div&gt;&lt;/div&gt;" style="rhombus;whiteSpace=wrap;html=1;labelBackgroundColor=none;flipH=1;flipV=1;shadow=0;labelBorderColor=none;fillColor=#333333;fontSize=12;" vertex="1" parent="1">
                    <mxGeometry x="-3776.375" y="-2190" width="202.75" height="163" as="geometry"/>
                </mxCell>
                <mxCell id="538" style="edgeStyle=none;html=1;entryX=0.5;entryY=1;entryDx=0;entryDy=0;entryPerimeter=0;labelBackgroundColor=none;fontSize=12;" edge="1" parent="1" source="539" target="540">
                    <mxGeometry relative="1" as="geometry"/>
                </mxCell>
                <mxCell id="539" value="&lt;div style=&quot;color: rgb(204, 204, 204); font-family: Menlo, Monaco, &amp;quot;Courier New&amp;quot;, monospace; line-height: 18px; font-size: 12px;&quot;&gt;&lt;span style=&quot;color: rgb(220, 220, 170); font-size: 12px;&quot;&gt;ErrorHandler&lt;/span&gt;()&lt;/div&gt;" style="shape=process;whiteSpace=wrap;html=1;backgroundOutline=1;labelBackgroundColor=none;flipH=1;flipV=1;shadow=0;labelBorderColor=none;fillColor=#333333;fontSize=12;" vertex="1" parent="1">
                    <mxGeometry x="-3515.24" y="-2134" width="150" height="58" as="geometry"/>
                </mxCell>
                <mxCell id="540" value="&lt;div style=&quot;color: rgb(204, 204, 204); font-family: Menlo, Monaco, &amp;quot;Courier New&amp;quot;, monospace; line-height: 18px; font-size: 12px;&quot;&gt;&lt;div style=&quot;line-height: 18px; font-size: 12px;&quot;&gt;&lt;div style=&quot;line-height: 18px; font-size: 12px;&quot;&gt;&lt;div style=&quot;line-height: 18px; font-size: 12px;&quot;&gt;&lt;div style=&quot;line-height: 18px; font-size: 12px;&quot;&gt;&lt;div style=&quot;line-height: 18px;&quot;&gt;&lt;div style=&quot;line-height: 18px;&quot;&gt;&lt;div style=&quot;background-color: rgb(31, 31, 31); line-height: 18px;&quot;&gt;&lt;span style=&quot;color: #4fc1ff;&quot;&gt;ERROR_NULL_POINTER&lt;/span&gt;&lt;/div&gt;&lt;/div&gt;&lt;/div&gt;&lt;/div&gt;&lt;/div&gt;&lt;/div&gt;&lt;/div&gt;&lt;/div&gt;" style="strokeWidth=2;html=1;shape=mxgraph.flowchart.terminator;whiteSpace=wrap;labelBackgroundColor=none;flipH=1;flipV=1;shadow=0;labelBorderColor=none;fillColor=#333333;fontSize=12;" vertex="1" parent="1">
                    <mxGeometry x="-3555.24" y="-2039" width="230" height="60" as="geometry"/>
                </mxCell>
                <mxCell id="541" value="yes" style="edgeStyle=none;html=1;labelBackgroundColor=none;fontSize=12;" edge="1" parent="1" source="543" target="545">
                    <mxGeometry x="0.0127" y="19" relative="1" as="geometry">
                        <mxPoint as="offset"/>
                    </mxGeometry>
                </mxCell>
                <mxCell id="542" value="no" style="edgeStyle=none;html=1;entryX=0.5;entryY=0;entryDx=0;entryDy=0;labelBackgroundColor=none;" edge="1" parent="1" source="543">
                    <mxGeometry x="-0.0659" y="16" relative="1" as="geometry">
                        <mxPoint as="offset"/>
                        <mxPoint x="-3675" y="-1760" as="targetPoint"/>
                    </mxGeometry>
                </mxCell>
                <mxCell id="543" value="&lt;div style=&quot;font-family: Menlo, Monaco, &amp;quot;Courier New&amp;quot;, monospace; font-weight: normal; font-size: 12px; line-height: 18px;&quot;&gt;&lt;span style=&quot;color: rgb(204, 204, 204); font-size: 12px;&quot;&gt;&lt;/span&gt;&lt;div style=&quot;line-height: 18px; font-size: 12px;&quot;&gt;&lt;span style=&quot;color: rgb(197, 134, 192); font-size: 12px;&quot;&gt;if&lt;/span&gt;&lt;span style=&quot;color: rgb(204, 204, 204); font-size: 12px;&quot;&gt;(&lt;/span&gt;&lt;/div&gt;&lt;div style=&quot;line-height: 18px; font-size: 12px;&quot;&gt;&lt;span style=&quot;color: rgb(156, 220, 254);&quot;&gt;!&lt;/span&gt;&lt;span style=&quot;color: rgb(156, 220, 254); background-color: rgb(31, 31, 31);&quot;&gt;self&lt;/span&gt;&lt;/div&gt;&lt;div style=&quot;line-height: 18px; font-size: 12px;&quot;&gt;&lt;span style=&quot;color: rgb(204, 204, 204);&quot;&gt;)&lt;/span&gt;&lt;br&gt;&lt;/div&gt;&lt;/div&gt;" style="rhombus;whiteSpace=wrap;html=1;labelBackgroundColor=none;flipH=1;flipV=1;shadow=0;labelBorderColor=none;fillColor=#333333;fontSize=12;" vertex="1" parent="1">
                    <mxGeometry x="-3776.375" y="-1979" width="202.75" height="163" as="geometry"/>
                </mxCell>
                <mxCell id="544" style="edgeStyle=none;html=1;entryX=0.5;entryY=1;entryDx=0;entryDy=0;entryPerimeter=0;labelBackgroundColor=none;fontSize=12;" edge="1" parent="1" source="545" target="546">
                    <mxGeometry relative="1" as="geometry"/>
                </mxCell>
                <mxCell id="545" value="&lt;div style=&quot;color: rgb(204, 204, 204); font-family: Menlo, Monaco, &amp;quot;Courier New&amp;quot;, monospace; line-height: 18px; font-size: 12px;&quot;&gt;&lt;span style=&quot;color: rgb(220, 220, 170); font-size: 12px;&quot;&gt;ErrorHandler&lt;/span&gt;()&lt;/div&gt;" style="shape=process;whiteSpace=wrap;html=1;backgroundOutline=1;labelBackgroundColor=none;flipH=1;flipV=1;shadow=0;labelBorderColor=none;fillColor=#333333;fontSize=12;" vertex="1" parent="1">
                    <mxGeometry x="-3515.24" y="-1923" width="150" height="58" as="geometry"/>
                </mxCell>
                <mxCell id="546" value="&lt;div style=&quot;color: rgb(204, 204, 204); font-family: Menlo, Monaco, &amp;quot;Courier New&amp;quot;, monospace; line-height: 18px; font-size: 12px;&quot;&gt;&lt;div style=&quot;line-height: 18px; font-size: 12px;&quot;&gt;&lt;div style=&quot;line-height: 18px; font-size: 12px;&quot;&gt;&lt;div style=&quot;line-height: 18px; font-size: 12px;&quot;&gt;&lt;div style=&quot;line-height: 18px; font-size: 12px;&quot;&gt;&lt;div style=&quot;line-height: 18px;&quot;&gt;&lt;div style=&quot;line-height: 18px;&quot;&gt;&lt;div style=&quot;background-color: rgb(31, 31, 31); line-height: 18px;&quot;&gt;&lt;span style=&quot;color: #4fc1ff;&quot;&gt;ERROR_NULL_POINTER&lt;/span&gt;&lt;/div&gt;&lt;/div&gt;&lt;/div&gt;&lt;/div&gt;&lt;/div&gt;&lt;/div&gt;&lt;/div&gt;&lt;/div&gt;" style="strokeWidth=2;html=1;shape=mxgraph.flowchart.terminator;whiteSpace=wrap;labelBackgroundColor=none;flipH=1;flipV=1;shadow=0;labelBorderColor=none;fillColor=#333333;fontSize=12;" vertex="1" parent="1">
                    <mxGeometry x="-3555.24" y="-1828" width="230" height="60" as="geometry"/>
                </mxCell>
                <mxCell id="564" style="edgeStyle=none;html=1;entryX=0.5;entryY=0;entryDx=0;entryDy=0;labelBackgroundColor=none;" edge="1" parent="1" source="548" target="549">
                    <mxGeometry relative="1" as="geometry"/>
                </mxCell>
                <mxCell id="548" value="&lt;div style=&quot;font-family: Menlo, Monaco, &amp;quot;Courier New&amp;quot;, monospace; font-weight: normal; font-size: 12px; line-height: 18px;&quot;&gt;&lt;div style=&quot;line-height: 18px; font-size: 12px;&quot;&gt;&lt;div style=&quot;line-height: 18px; font-size: 12px;&quot;&gt;&lt;div style=&quot;line-height: 18px;&quot;&gt;&lt;div style=&quot;line-height: 18px;&quot;&gt;&lt;div style=&quot;line-height: 18px;&quot;&gt;&lt;div style=&quot;line-height: 18px;&quot;&gt;&lt;div style=&quot;line-height: 18px;&quot;&gt;&lt;div style=&quot;line-height: 18px;&quot;&gt;&lt;div style=&quot;background-color: rgb(31, 31, 31); line-height: 18px;&quot;&gt;&lt;span style=&quot;color: rgb(156, 220, 254);&quot;&gt;index&lt;/span&gt; &lt;span style=&quot;color: rgb(212, 212, 212);&quot;&gt;=&lt;/span&gt; &lt;span style=&quot;color: rgb(220, 220, 170);&quot;&gt;_hash_function&lt;/span&gt;&lt;font color=&quot;#cccccc&quot;&gt;(&lt;/font&gt;&lt;/div&gt;&lt;div style=&quot;background-color: rgb(31, 31, 31); line-height: 18px;&quot;&gt;&lt;span style=&quot;color: rgb(156, 220, 254);&quot;&gt;character&lt;/span&gt;&lt;font color=&quot;#cccccc&quot;&gt;.&lt;/font&gt;&lt;span style=&quot;color: rgb(156, 220, 254);&quot;&gt;asciiKey&lt;/span&gt;&lt;font color=&quot;#cccccc&quot;&gt;)&lt;/font&gt;&lt;/div&gt;&lt;/div&gt;&lt;/div&gt;&lt;/div&gt;&lt;/div&gt;&lt;/div&gt;&lt;/div&gt;&lt;/div&gt;&lt;/div&gt;&lt;/div&gt;" style="rounded=1;whiteSpace=wrap;html=1;labelBackgroundColor=none;flipH=1;flipV=1;shadow=0;labelBorderColor=none;fillColor=#333333;fontSize=12;" vertex="1" parent="1">
                    <mxGeometry x="-3765" y="-1760" width="180" height="60" as="geometry"/>
                </mxCell>
                <mxCell id="565" style="edgeStyle=none;html=1;entryX=0.5;entryY=0;entryDx=0;entryDy=0;labelBackgroundColor=none;" edge="1" parent="1" source="549" target="552">
                    <mxGeometry relative="1" as="geometry"/>
                </mxCell>
                <mxCell id="549" value="&lt;div style=&quot;font-family: Menlo, Monaco, &amp;quot;Courier New&amp;quot;, monospace; font-weight: normal; font-size: 12px; line-height: 18px;&quot;&gt;&lt;div style=&quot;line-height: 18px; font-size: 12px;&quot;&gt;&lt;div style=&quot;line-height: 18px; font-size: 12px;&quot;&gt;&lt;div style=&quot;line-height: 18px;&quot;&gt;&lt;div style=&quot;line-height: 18px;&quot;&gt;&lt;div style=&quot;color: rgb(204, 204, 204); background-color: rgb(31, 31, 31); line-height: 18px;&quot;&gt;&lt;span style=&quot;color: #d4d4d4;&quot;&gt;*&lt;/span&gt;&lt;span style=&quot;color: #9cdcfe;&quot;&gt;new_node&lt;/span&gt; &lt;span style=&quot;color: #d4d4d4;&quot;&gt;=&lt;/span&gt; &lt;span style=&quot;color: #dcdcaa;&quot;&gt;malloc&lt;/span&gt;(&lt;/div&gt;&lt;div style=&quot;color: rgb(204, 204, 204); background-color: rgb(31, 31, 31); line-height: 18px;&quot;&gt;&lt;span style=&quot;color: #569cd6;&quot;&gt;sizeof&lt;/span&gt;(&lt;span style=&quot;color: #4ec9b0;&quot;&gt;hashNode_t&lt;/span&gt;))&lt;/div&gt;&lt;/div&gt;&lt;/div&gt;&lt;/div&gt;&lt;/div&gt;&lt;/div&gt;" style="rounded=1;whiteSpace=wrap;html=1;labelBackgroundColor=none;flipH=1;flipV=1;shadow=0;labelBorderColor=none;fillColor=#333333;fontSize=12;" vertex="1" parent="1">
                    <mxGeometry x="-3765" y="-1670" width="180" height="60" as="geometry"/>
                </mxCell>
                <mxCell id="550" value="yes" style="edgeStyle=none;html=1;labelBackgroundColor=none;fontSize=12;" edge="1" parent="1" source="552" target="554">
                    <mxGeometry x="0.0127" y="19" relative="1" as="geometry">
                        <mxPoint as="offset"/>
                    </mxGeometry>
                </mxCell>
                <mxCell id="551" value="no" style="edgeStyle=none;html=1;entryX=0.5;entryY=0;entryDx=0;entryDy=0;labelBackgroundColor=none;" edge="1" parent="1" source="552" target="556">
                    <mxGeometry x="-0.0659" y="16" relative="1" as="geometry">
                        <mxPoint as="offset"/>
                        <mxPoint x="-3675" y="-1371" as="targetPoint"/>
                    </mxGeometry>
                </mxCell>
                <mxCell id="552" value="&lt;div style=&quot;font-family: Menlo, Monaco, &amp;quot;Courier New&amp;quot;, monospace; font-weight: normal; font-size: 12px; line-height: 18px;&quot;&gt;&lt;span style=&quot;color: rgb(204, 204, 204); font-size: 12px;&quot;&gt;&lt;/span&gt;&lt;div style=&quot;line-height: 18px; font-size: 12px;&quot;&gt;&lt;span style=&quot;color: rgb(197, 134, 192); font-size: 12px;&quot;&gt;if&lt;/span&gt;&lt;span style=&quot;color: rgb(204, 204, 204); font-size: 12px;&quot;&gt;(&lt;/span&gt;&lt;/div&gt;&lt;div style=&quot;line-height: 18px; font-size: 12px;&quot;&gt;&lt;span style=&quot;color: rgb(156, 220, 254);&quot;&gt;!&lt;/span&gt;&lt;span style=&quot;background-color: rgb(31, 31, 31); color: rgb(156, 220, 254);&quot;&gt;&amp;nbsp;new_node&lt;/span&gt;&lt;/div&gt;&lt;div style=&quot;line-height: 18px; font-size: 12px;&quot;&gt;&lt;span style=&quot;color: rgb(204, 204, 204);&quot;&gt;)&lt;/span&gt;&lt;br&gt;&lt;/div&gt;&lt;/div&gt;" style="rhombus;whiteSpace=wrap;html=1;labelBackgroundColor=none;flipH=1;flipV=1;shadow=0;labelBorderColor=none;fillColor=#333333;fontSize=12;" vertex="1" parent="1">
                    <mxGeometry x="-3776.375" y="-1590" width="202.75" height="163" as="geometry"/>
                </mxCell>
                <mxCell id="553" style="edgeStyle=none;html=1;entryX=0.5;entryY=1;entryDx=0;entryDy=0;entryPerimeter=0;labelBackgroundColor=none;fontSize=12;" edge="1" parent="1" source="554" target="555">
                    <mxGeometry relative="1" as="geometry"/>
                </mxCell>
                <mxCell id="554" value="&lt;div style=&quot;color: rgb(204, 204, 204); font-family: Menlo, Monaco, &amp;quot;Courier New&amp;quot;, monospace; line-height: 18px; font-size: 12px;&quot;&gt;&lt;span style=&quot;color: rgb(220, 220, 170); font-size: 12px;&quot;&gt;ErrorHandler&lt;/span&gt;()&lt;/div&gt;" style="shape=process;whiteSpace=wrap;html=1;backgroundOutline=1;labelBackgroundColor=none;flipH=1;flipV=1;shadow=0;labelBorderColor=none;fillColor=#333333;fontSize=12;" vertex="1" parent="1">
                    <mxGeometry x="-3515.24" y="-1534" width="150" height="58" as="geometry"/>
                </mxCell>
                <mxCell id="555" value="&lt;div style=&quot;color: rgb(204, 204, 204); font-family: Menlo, Monaco, &amp;quot;Courier New&amp;quot;, monospace; line-height: 18px; font-size: 12px;&quot;&gt;&lt;div style=&quot;line-height: 18px; font-size: 12px;&quot;&gt;&lt;div style=&quot;line-height: 18px; font-size: 12px;&quot;&gt;&lt;div style=&quot;line-height: 18px; font-size: 12px;&quot;&gt;&lt;div style=&quot;line-height: 18px; font-size: 12px;&quot;&gt;&lt;div style=&quot;line-height: 18px;&quot;&gt;&lt;div style=&quot;line-height: 18px;&quot;&gt;&lt;div style=&quot;background-color: rgb(31, 31, 31); line-height: 18px;&quot;&gt;&lt;span style=&quot;color: #4fc1ff;&quot;&gt;ERROR_NULL_POINTER&lt;/span&gt;&lt;/div&gt;&lt;/div&gt;&lt;/div&gt;&lt;/div&gt;&lt;/div&gt;&lt;/div&gt;&lt;/div&gt;&lt;/div&gt;" style="strokeWidth=2;html=1;shape=mxgraph.flowchart.terminator;whiteSpace=wrap;labelBackgroundColor=none;flipH=1;flipV=1;shadow=0;labelBorderColor=none;fillColor=#333333;fontSize=12;" vertex="1" parent="1">
                    <mxGeometry x="-3555.24" y="-1439" width="230" height="60" as="geometry"/>
                </mxCell>
                <mxCell id="566" style="edgeStyle=none;html=1;entryX=0.5;entryY=0;entryDx=0;entryDy=0;labelBackgroundColor=none;" edge="1" parent="1" source="556" target="557">
                    <mxGeometry relative="1" as="geometry"/>
                </mxCell>
                <mxCell id="556" value="&lt;div style=&quot;font-family: Menlo, Monaco, &amp;quot;Courier New&amp;quot;, monospace; font-weight: normal; font-size: 12px; line-height: 18px;&quot;&gt;&lt;div style=&quot;line-height: 18px; font-size: 12px;&quot;&gt;&lt;div style=&quot;line-height: 18px; font-size: 12px;&quot;&gt;&lt;div style=&quot;line-height: 18px;&quot;&gt;&lt;div style=&quot;line-height: 18px;&quot;&gt;&lt;div style=&quot;line-height: 18px;&quot;&gt;&lt;div style=&quot;line-height: 18px;&quot;&gt;&lt;div style=&quot;line-height: 18px;&quot;&gt;&lt;div style=&quot;line-height: 18px;&quot;&gt;&lt;div style=&quot;line-height: 18px;&quot;&gt;&lt;div style=&quot;background-color: rgb(31, 31, 31); line-height: 18px;&quot;&gt;&lt;span style=&quot;color: rgb(156, 220, 254);&quot;&gt;new_node&lt;/span&gt;&lt;font color=&quot;#cccccc&quot;&gt;.&lt;/font&gt;&lt;span style=&quot;color: rgb(156, 220, 254);&quot;&gt;key&lt;/span&gt; &lt;span style=&quot;color: rgb(212, 212, 212);&quot;&gt;=&lt;/span&gt; &lt;span style=&quot;color: rgb(156, 220, 254);&quot;&gt;character&lt;/span&gt;&lt;font color=&quot;#cccccc&quot;&gt;.&lt;/font&gt;&lt;span style=&quot;color: rgb(156, 220, 254);&quot;&gt;asciiKey&lt;/span&gt;&lt;/div&gt;&lt;/div&gt;&lt;/div&gt;&lt;/div&gt;&lt;/div&gt;&lt;/div&gt;&lt;/div&gt;&lt;/div&gt;&lt;/div&gt;&lt;/div&gt;&lt;/div&gt;" style="rounded=1;whiteSpace=wrap;html=1;labelBackgroundColor=none;flipH=1;flipV=1;shadow=0;labelBorderColor=none;fillColor=#333333;fontSize=12;" vertex="1" parent="1">
                    <mxGeometry x="-3765" y="-1365.5" width="180" height="60" as="geometry"/>
                </mxCell>
                <mxCell id="567" style="edgeStyle=none;html=1;entryX=0.5;entryY=0;entryDx=0;entryDy=0;labelBackgroundColor=none;" edge="1" parent="1" source="557" target="558">
                    <mxGeometry relative="1" as="geometry"/>
                </mxCell>
                <mxCell id="557" value="&lt;div style=&quot;font-family: Menlo, Monaco, &amp;quot;Courier New&amp;quot;, monospace; font-weight: normal; font-size: 12px; line-height: 18px;&quot;&gt;&lt;div style=&quot;line-height: 18px; font-size: 12px;&quot;&gt;&lt;div style=&quot;line-height: 18px; font-size: 12px;&quot;&gt;&lt;div style=&quot;line-height: 18px;&quot;&gt;&lt;div style=&quot;line-height: 18px;&quot;&gt;&lt;div style=&quot;line-height: 18px;&quot;&gt;&lt;div style=&quot;line-height: 18px;&quot;&gt;&lt;div style=&quot;line-height: 18px;&quot;&gt;&lt;div style=&quot;line-height: 18px;&quot;&gt;&lt;div style=&quot;line-height: 18px;&quot;&gt;&lt;div style=&quot;background-color: rgb(31, 31, 31); line-height: 18px;&quot;&gt;&lt;div style=&quot;line-height: 18px;&quot;&gt; &lt;span style=&quot;color: rgb(156, 220, 254);&quot;&gt;new_node&lt;/span&gt;&lt;font color=&quot;#cccccc&quot;&gt;.&lt;/font&gt;&lt;span style=&quot;color: rgb(156, 220, 254);&quot;&gt;character&lt;/span&gt; &lt;span style=&quot;color: rgb(212, 212, 212);&quot;&gt;=&lt;/span&gt; &lt;span style=&quot;color: rgb(156, 220, 254);&quot;&gt;character&lt;/span&gt;&lt;/div&gt;&lt;/div&gt;&lt;/div&gt;&lt;/div&gt;&lt;/div&gt;&lt;/div&gt;&lt;/div&gt;&lt;/div&gt;&lt;/div&gt;&lt;/div&gt;&lt;/div&gt;&lt;/div&gt;" style="rounded=1;whiteSpace=wrap;html=1;labelBackgroundColor=none;flipH=1;flipV=1;shadow=0;labelBorderColor=none;fillColor=#333333;fontSize=12;" vertex="1" parent="1">
                    <mxGeometry x="-3765" y="-1275.5" width="180" height="60" as="geometry"/>
                </mxCell>
                <mxCell id="568" style="edgeStyle=none;html=1;entryX=0.5;entryY=0;entryDx=0;entryDy=0;labelBackgroundColor=none;" edge="1" parent="1" source="558" target="559">
                    <mxGeometry relative="1" as="geometry"/>
                </mxCell>
                <mxCell id="558" value="&lt;div style=&quot;font-family: Menlo, Monaco, &amp;quot;Courier New&amp;quot;, monospace; font-weight: normal; font-size: 12px; line-height: 18px;&quot;&gt;&lt;div style=&quot;line-height: 18px; font-size: 12px;&quot;&gt;&lt;div style=&quot;line-height: 18px; font-size: 12px;&quot;&gt;&lt;div style=&quot;line-height: 18px;&quot;&gt;&lt;div style=&quot;line-height: 18px;&quot;&gt;&lt;div style=&quot;line-height: 18px;&quot;&gt;&lt;div style=&quot;line-height: 18px;&quot;&gt;&lt;div style=&quot;line-height: 18px;&quot;&gt;&lt;div style=&quot;line-height: 18px;&quot;&gt;&lt;div style=&quot;line-height: 18px;&quot;&gt;&lt;div style=&quot;background-color: rgb(31, 31, 31); line-height: 18px;&quot;&gt;&lt;div style=&quot;line-height: 18px;&quot;&gt;&lt;span style=&quot;color: rgb(156, 220, 254);&quot;&gt;new_node&lt;/span&gt;&lt;font color=&quot;#cccccc&quot;&gt;.&lt;/font&gt;&lt;span style=&quot;color: rgb(156, 220, 254);&quot;&gt;next&lt;/span&gt; &lt;span style=&quot;color: rgb(212, 212, 212);&quot;&gt;=&lt;/span&gt; &lt;span style=&quot;color: rgb(156, 220, 254);&quot;&gt;self&lt;/span&gt;&lt;font color=&quot;#cccccc&quot;&gt;.&lt;/font&gt;&lt;span style=&quot;color: rgb(156, 220, 254);&quot;&gt;table&lt;/span&gt;&lt;font color=&quot;#cccccc&quot;&gt;[&lt;/font&gt;&lt;span style=&quot;color: rgb(156, 220, 254);&quot;&gt;index&lt;/span&gt;&lt;font color=&quot;#cccccc&quot;&gt;]&lt;/font&gt;&lt;/div&gt;&lt;/div&gt;&lt;/div&gt;&lt;/div&gt;&lt;/div&gt;&lt;/div&gt;&lt;/div&gt;&lt;/div&gt;&lt;/div&gt;&lt;/div&gt;&lt;/div&gt;&lt;/div&gt;" style="rounded=1;whiteSpace=wrap;html=1;labelBackgroundColor=none;flipH=1;flipV=1;shadow=0;labelBorderColor=none;fillColor=#333333;fontSize=12;" vertex="1" parent="1">
                    <mxGeometry x="-3765" y="-1185.5" width="180" height="60" as="geometry"/>
                </mxCell>
                <mxCell id="569" style="edgeStyle=none;html=1;entryX=0.5;entryY=1;entryDx=0;entryDy=0;entryPerimeter=0;labelBackgroundColor=none;" edge="1" parent="1" source="559" target="560">
                    <mxGeometry relative="1" as="geometry"/>
                </mxCell>
                <mxCell id="559" value="&lt;div style=&quot;font-family: Menlo, Monaco, &amp;quot;Courier New&amp;quot;, monospace; font-weight: normal; font-size: 12px; line-height: 18px;&quot;&gt;&lt;div style=&quot;line-height: 18px; font-size: 12px;&quot;&gt;&lt;div style=&quot;line-height: 18px; font-size: 12px;&quot;&gt;&lt;div style=&quot;line-height: 18px;&quot;&gt;&lt;div style=&quot;line-height: 18px;&quot;&gt;&lt;div style=&quot;line-height: 18px;&quot;&gt;&lt;div style=&quot;line-height: 18px;&quot;&gt;&lt;div style=&quot;line-height: 18px;&quot;&gt;&lt;div style=&quot;line-height: 18px;&quot;&gt;&lt;div style=&quot;line-height: 18px;&quot;&gt;&lt;div style=&quot;background-color: rgb(31, 31, 31); line-height: 18px;&quot;&gt;&lt;div style=&quot;line-height: 18px;&quot;&gt;&lt;span style=&quot;color: rgb(156, 220, 254);&quot;&gt;self&lt;/span&gt;&lt;font color=&quot;#cccccc&quot;&gt;.&lt;/font&gt;&lt;span style=&quot;color: rgb(156, 220, 254);&quot;&gt;table&lt;/span&gt;&lt;font color=&quot;#cccccc&quot;&gt;[&lt;/font&gt;&lt;span style=&quot;color: rgb(156, 220, 254);&quot;&gt;index&lt;/span&gt;&lt;font color=&quot;#cccccc&quot;&gt;] &lt;/font&gt;&lt;span style=&quot;color: rgb(212, 212, 212);&quot;&gt;=&lt;/span&gt; &lt;span style=&quot;color: rgb(156, 220, 254);&quot;&gt;new_node&lt;/span&gt;&lt;/div&gt;&lt;/div&gt;&lt;/div&gt;&lt;/div&gt;&lt;/div&gt;&lt;/div&gt;&lt;/div&gt;&lt;/div&gt;&lt;/div&gt;&lt;/div&gt;&lt;/div&gt;&lt;/div&gt;" style="rounded=1;whiteSpace=wrap;html=1;labelBackgroundColor=none;flipH=1;flipV=1;shadow=0;labelBorderColor=none;fillColor=#333333;fontSize=12;" vertex="1" parent="1">
                    <mxGeometry x="-3765" y="-1095.5" width="180" height="60" as="geometry"/>
                </mxCell>
                <mxCell id="560" value="&lt;div style=&quot;color: rgb(204, 204, 204); font-family: Menlo, Monaco, &amp;quot;Courier New&amp;quot;, monospace; line-height: 18px; font-size: 12px;&quot;&gt;&lt;div style=&quot;line-height: 18px; font-size: 12px;&quot;&gt;&lt;div style=&quot;line-height: 18px; font-size: 12px;&quot;&gt;&lt;div style=&quot;line-height: 18px; font-size: 12px;&quot;&gt;&lt;div style=&quot;line-height: 18px; font-size: 12px;&quot;&gt;&lt;div style=&quot;line-height: 18px;&quot;&gt;&lt;div style=&quot;line-height: 18px;&quot;&gt;&lt;div style=&quot;background-color: rgb(31, 31, 31); line-height: 18px;&quot;&gt;&lt;div style=&quot;line-height: 18px;&quot;&gt;&lt;span style=&quot;color: #4fc1ff;&quot;&gt;SUCCESS&lt;/span&gt;&lt;/div&gt;&lt;/div&gt;&lt;/div&gt;&lt;/div&gt;&lt;/div&gt;&lt;/div&gt;&lt;/div&gt;&lt;/div&gt;&lt;/div&gt;" style="strokeWidth=2;html=1;shape=mxgraph.flowchart.terminator;whiteSpace=wrap;labelBackgroundColor=none;flipH=1;flipV=1;shadow=0;labelBorderColor=none;fillColor=#333333;fontSize=12;" vertex="1" parent="1">
                    <mxGeometry x="-3790" y="-1005.5" width="230" height="60" as="geometry"/>
                </mxCell>
                <mxCell id="570" value="yes" style="edgeStyle=none;html=1;labelBackgroundColor=none;fontSize=12;" edge="1" parent="1" source="571" target="573">
                    <mxGeometry x="0.0127" y="19" relative="1" as="geometry">
                        <mxPoint as="offset"/>
                    </mxGeometry>
                </mxCell>
                <mxCell id="578" value="no" style="edgeStyle=none;html=1;entryX=0.5;entryY=0;entryDx=0;entryDy=0;labelBackgroundColor=none;" edge="1" parent="1" source="571" target="575">
                    <mxGeometry x="-0.4815" y="15" relative="1" as="geometry">
                        <mxPoint as="offset"/>
                    </mxGeometry>
                </mxCell>
                <mxCell id="571" value="&lt;div style=&quot;font-family: Menlo, Monaco, &amp;quot;Courier New&amp;quot;, monospace; font-weight: normal; font-size: 12px; line-height: 18px;&quot;&gt;&lt;span style=&quot;color: rgb(204, 204, 204); font-size: 12px;&quot;&gt;&lt;/span&gt;&lt;div style=&quot;line-height: 18px; font-size: 12px;&quot;&gt;&lt;span style=&quot;color: rgb(197, 134, 192); font-size: 12px;&quot;&gt;if&lt;/span&gt;&lt;span style=&quot;color: rgb(204, 204, 204); font-size: 12px;&quot;&gt;(&lt;/span&gt;&lt;/div&gt;&lt;div style=&quot;line-height: 18px; font-size: 12px;&quot;&gt;&lt;font color=&quot;#9cdcfe&quot;&gt;!self&lt;/font&gt;&lt;/div&gt;&lt;div style=&quot;line-height: 18px; font-size: 12px;&quot;&gt;&lt;span style=&quot;color: rgb(204, 204, 204);&quot;&gt;)&lt;/span&gt;&lt;br&gt;&lt;/div&gt;&lt;/div&gt;" style="rhombus;whiteSpace=wrap;html=1;labelBackgroundColor=none;flipH=1;flipV=1;shadow=0;labelBorderColor=none;fillColor=#333333;fontSize=12;" vertex="1" parent="1">
                    <mxGeometry x="-4916.375" y="-965.5" width="202.75" height="163" as="geometry"/>
                </mxCell>
                <mxCell id="572" style="edgeStyle=none;html=1;entryX=0.5;entryY=1;entryDx=0;entryDy=0;entryPerimeter=0;labelBackgroundColor=none;fontSize=12;" edge="1" parent="1" source="573" target="574">
                    <mxGeometry relative="1" as="geometry"/>
                </mxCell>
                <mxCell id="573" value="&lt;div style=&quot;color: rgb(204, 204, 204); font-family: Menlo, Monaco, &amp;quot;Courier New&amp;quot;, monospace; line-height: 18px; font-size: 12px;&quot;&gt;&lt;span style=&quot;color: rgb(220, 220, 170); font-size: 12px;&quot;&gt;ErrorHandler&lt;/span&gt;()&lt;/div&gt;" style="shape=process;whiteSpace=wrap;html=1;backgroundOutline=1;labelBackgroundColor=none;flipH=1;flipV=1;shadow=0;labelBorderColor=none;fillColor=#333333;fontSize=12;" vertex="1" parent="1">
                    <mxGeometry x="-4655.24" y="-909.5" width="150" height="58" as="geometry"/>
                </mxCell>
                <mxCell id="574" value="&lt;div style=&quot;color: rgb(204, 204, 204); font-family: Menlo, Monaco, &amp;quot;Courier New&amp;quot;, monospace; line-height: 18px; font-size: 12px;&quot;&gt;&lt;div style=&quot;line-height: 18px; font-size: 12px;&quot;&gt;&lt;div style=&quot;line-height: 18px; font-size: 12px;&quot;&gt;&lt;div style=&quot;line-height: 18px; font-size: 12px;&quot;&gt;&lt;div style=&quot;line-height: 18px; font-size: 12px;&quot;&gt;&lt;div style=&quot;line-height: 18px;&quot;&gt;&lt;div style=&quot;line-height: 18px;&quot;&gt;&lt;div style=&quot;background-color: rgb(31, 31, 31); line-height: 18px;&quot;&gt;&lt;span style=&quot;color: #4fc1ff;&quot;&gt;ERROR_NULL_POINTER&lt;/span&gt;&lt;/div&gt;&lt;/div&gt;&lt;/div&gt;&lt;/div&gt;&lt;/div&gt;&lt;/div&gt;&lt;/div&gt;&lt;/div&gt;" style="strokeWidth=2;html=1;shape=mxgraph.flowchart.terminator;whiteSpace=wrap;labelBackgroundColor=none;flipH=1;flipV=1;shadow=0;labelBorderColor=none;fillColor=#333333;fontSize=12;" vertex="1" parent="1">
                    <mxGeometry x="-4695.24" y="-814.5" width="230" height="60" as="geometry"/>
                </mxCell>
                <mxCell id="579" value="" style="edgeStyle=none;html=1;labelBackgroundColor=none;" edge="1" parent="1" source="575" target="576">
                    <mxGeometry relative="1" as="geometry"/>
                </mxCell>
                <mxCell id="575" value="&lt;div style=&quot;font-family: Menlo, Monaco, &amp;quot;Courier New&amp;quot;, monospace; font-weight: normal; font-size: 12px; line-height: 18px;&quot;&gt;&lt;div style=&quot;line-height: 18px; font-size: 12px;&quot;&gt;&lt;div style=&quot;line-height: 18px; font-size: 12px;&quot;&gt;&lt;div style=&quot;line-height: 18px;&quot;&gt;&lt;div style=&quot;line-height: 18px;&quot;&gt;&lt;div style=&quot;line-height: 18px;&quot;&gt;&lt;div style=&quot;line-height: 18px;&quot;&gt;&lt;div style=&quot;line-height: 18px;&quot;&gt;&lt;div style=&quot;line-height: 18px;&quot;&gt;&lt;div style=&quot;line-height: 18px;&quot;&gt;&lt;div style=&quot;background-color: rgb(31, 31, 31); line-height: 18px;&quot;&gt;&lt;div style=&quot;line-height: 18px;&quot;&gt;&lt;div style=&quot;color: rgb(204, 204, 204); line-height: 18px;&quot;&gt;&lt;span style=&quot;color: #9cdcfe;&quot;&gt;index&lt;/span&gt; &lt;span style=&quot;color: #d4d4d4;&quot;&gt;=&lt;/span&gt; &lt;span style=&quot;color: #dcdcaa;&quot;&gt;_hash_function&lt;/span&gt;(&lt;span style=&quot;color: #9cdcfe;&quot;&gt;asciiKey&lt;/span&gt;)&lt;/div&gt;&lt;/div&gt;&lt;/div&gt;&lt;/div&gt;&lt;/div&gt;&lt;/div&gt;&lt;/div&gt;&lt;/div&gt;&lt;/div&gt;&lt;/div&gt;&lt;/div&gt;&lt;/div&gt;&lt;/div&gt;" style="rounded=1;whiteSpace=wrap;html=1;labelBackgroundColor=none;flipH=1;flipV=1;shadow=0;labelBorderColor=none;fillColor=#333333;fontSize=12;" vertex="1" parent="1">
                    <mxGeometry x="-4905" y="-775.5" width="180" height="60" as="geometry"/>
                </mxCell>
                <mxCell id="583" style="edgeStyle=none;html=1;labelBackgroundColor=none;" edge="1" parent="1" source="576" target="580">
                    <mxGeometry relative="1" as="geometry"/>
                </mxCell>
                <mxCell id="576" value="&lt;div style=&quot;font-family: Menlo, Monaco, &amp;quot;Courier New&amp;quot;, monospace; font-weight: normal; font-size: 12px; line-height: 18px;&quot;&gt;&lt;div style=&quot;line-height: 18px; font-size: 12px;&quot;&gt;&lt;div style=&quot;line-height: 18px; font-size: 12px;&quot;&gt;&lt;div style=&quot;line-height: 18px;&quot;&gt;&lt;div style=&quot;line-height: 18px;&quot;&gt;&lt;div style=&quot;line-height: 18px;&quot;&gt;&lt;div style=&quot;line-height: 18px;&quot;&gt;&lt;div style=&quot;line-height: 18px;&quot;&gt;&lt;div style=&quot;line-height: 18px;&quot;&gt;&lt;div style=&quot;line-height: 18px;&quot;&gt;&lt;div style=&quot;background-color: rgb(31, 31, 31); line-height: 18px;&quot;&gt;&lt;div style=&quot;line-height: 18px;&quot;&gt;&lt;div style=&quot;line-height: 18px;&quot;&gt;&lt;div style=&quot;line-height: 18px;&quot;&gt;&lt;span style=&quot;color: rgb(212, 212, 212);&quot;&gt;*&lt;/span&gt;&lt;span style=&quot;color: rgb(156, 220, 254);&quot;&gt;node&lt;/span&gt; &lt;span style=&quot;color: rgb(212, 212, 212);&quot;&gt;=&lt;/span&gt; &lt;span style=&quot;color: rgb(156, 220, 254);&quot;&gt;self&lt;/span&gt;&lt;font color=&quot;#cccccc&quot;&gt;.&lt;/font&gt;&lt;span style=&quot;color: rgb(156, 220, 254);&quot;&gt;table&lt;/span&gt;&lt;font color=&quot;#cccccc&quot;&gt;[&lt;/font&gt;&lt;span style=&quot;color: rgb(156, 220, 254);&quot;&gt;index&lt;/span&gt;&lt;font color=&quot;#cccccc&quot;&gt;]&lt;/font&gt;&lt;/div&gt;&lt;/div&gt;&lt;/div&gt;&lt;/div&gt;&lt;/div&gt;&lt;/div&gt;&lt;/div&gt;&lt;/div&gt;&lt;/div&gt;&lt;/div&gt;&lt;/div&gt;&lt;/div&gt;&lt;/div&gt;&lt;/div&gt;" style="rounded=1;whiteSpace=wrap;html=1;labelBackgroundColor=none;flipH=1;flipV=1;shadow=0;labelBorderColor=none;fillColor=#333333;fontSize=12;" vertex="1" parent="1">
                    <mxGeometry x="-4905" y="-685.5" width="180" height="60" as="geometry"/>
                </mxCell>
                <mxCell id="584" value="yes" style="edgeStyle=none;html=1;labelBackgroundColor=none;" edge="1" parent="1" source="580" target="581">
                    <mxGeometry x="-0.4815" y="25" relative="1" as="geometry">
                        <mxPoint as="offset"/>
                    </mxGeometry>
                </mxCell>
                <mxCell id="591" value="no" style="edgeStyle=none;html=1;entryX=1;entryY=0.5;entryDx=0;entryDy=0;entryPerimeter=0;labelBackgroundColor=none;" edge="1" parent="1" source="580" target="590">
                    <mxGeometry x="-0.1896" y="12" relative="1" as="geometry">
                        <mxPoint y="1" as="offset"/>
                    </mxGeometry>
                </mxCell>
                <mxCell id="580" value="&lt;div style=&quot;font-family: Menlo, Monaco, &amp;quot;Courier New&amp;quot;, monospace; font-weight: normal; font-size: 12px; line-height: 18px;&quot;&gt;&lt;span style=&quot;color: rgb(204, 204, 204); font-size: 12px;&quot;&gt;&lt;/span&gt;&lt;div style=&quot;line-height: 18px; font-size: 12px;&quot;&gt;&lt;span style=&quot;color: rgb(197, 134, 192); font-size: 12px;&quot;&gt;if&lt;/span&gt;&lt;span style=&quot;color: rgb(204, 204, 204); font-size: 12px;&quot;&gt;(&lt;/span&gt;&lt;/div&gt;&lt;div style=&quot;line-height: 18px; font-size: 12px;&quot;&gt;&lt;div style=&quot;color: rgb(204, 204, 204); background-color: rgb(31, 31, 31); line-height: 18px;&quot;&gt;&lt;span style=&quot;color: #9cdcfe;&quot;&gt;node&lt;/span&gt; &lt;span style=&quot;color: #d4d4d4;&quot;&gt;!=&lt;/span&gt; &lt;span style=&quot;color: #569cd6;&quot;&gt;NULL&lt;/span&gt;&lt;/div&gt;&lt;/div&gt;&lt;div style=&quot;line-height: 18px; font-size: 12px;&quot;&gt;&lt;span style=&quot;color: rgb(204, 204, 204);&quot;&gt;)&lt;/span&gt;&lt;br&gt;&lt;/div&gt;&lt;/div&gt;" style="rhombus;whiteSpace=wrap;html=1;labelBackgroundColor=none;flipH=1;flipV=1;shadow=0;labelBorderColor=none;fillColor=#333333;fontSize=12;" vertex="1" parent="1">
                    <mxGeometry x="-4916.375" y="-605.5" width="202.75" height="163" as="geometry"/>
                </mxCell>
                <mxCell id="585" value="yes" style="edgeStyle=none;html=1;entryX=1;entryY=0.5;entryDx=0;entryDy=0;entryPerimeter=0;labelBackgroundColor=none;" edge="1" parent="1" source="581" target="582">
                    <mxGeometry x="-0.1896" y="12" relative="1" as="geometry">
                        <mxPoint as="offset"/>
                    </mxGeometry>
                </mxCell>
                <mxCell id="588" style="edgeStyle=none;html=1;entryX=0.5;entryY=0;entryDx=0;entryDy=0;labelBackgroundColor=none;" edge="1" parent="1" source="581" target="587">
                    <mxGeometry relative="1" as="geometry"/>
                </mxCell>
                <mxCell id="581" value="&lt;div style=&quot;font-family: Menlo, Monaco, &amp;quot;Courier New&amp;quot;, monospace; font-weight: normal; font-size: 12px; line-height: 18px;&quot;&gt;&lt;span style=&quot;color: rgb(204, 204, 204); font-size: 12px;&quot;&gt;&lt;/span&gt;&lt;div style=&quot;line-height: 18px; font-size: 12px;&quot;&gt;&lt;span style=&quot;color: rgb(197, 134, 192); font-size: 12px;&quot;&gt;if&lt;/span&gt;&lt;span style=&quot;color: rgb(204, 204, 204); font-size: 12px;&quot;&gt;(&lt;/span&gt;&lt;/div&gt;&lt;div style=&quot;line-height: 18px; font-size: 12px;&quot;&gt;&lt;div style=&quot;background-color: rgb(31, 31, 31); line-height: 18px;&quot;&gt;&lt;div style=&quot;line-height: 18px;&quot;&gt;&lt;span style=&quot;color: rgb(156, 220, 254);&quot;&gt;node&lt;/span&gt;&lt;font color=&quot;#cccccc&quot;&gt;.&lt;/font&gt;&lt;span style=&quot;color: rgb(156, 220, 254);&quot;&gt;key&lt;/span&gt; &lt;span style=&quot;color: rgb(212, 212, 212);&quot;&gt;==&lt;/span&gt; &lt;span style=&quot;color: rgb(156, 220, 254);&quot;&gt;asciiKey&lt;/span&gt;&lt;/div&gt;&lt;/div&gt;&lt;/div&gt;&lt;div style=&quot;line-height: 18px; font-size: 12px;&quot;&gt;&lt;span style=&quot;color: rgb(204, 204, 204);&quot;&gt;)&lt;/span&gt;&lt;br&gt;&lt;/div&gt;&lt;/div&gt;" style="rhombus;whiteSpace=wrap;html=1;labelBackgroundColor=none;flipH=1;flipV=1;shadow=0;labelBorderColor=none;fillColor=#333333;fontSize=12;" vertex="1" parent="1">
                    <mxGeometry x="-4916.375" y="-415.5" width="202.75" height="163" as="geometry"/>
                </mxCell>
                <mxCell id="582" value="&lt;div style=&quot;font-family: Menlo, Monaco, &amp;quot;Courier New&amp;quot;, monospace; line-height: 18px; font-size: 12px;&quot;&gt;&lt;div style=&quot;line-height: 18px; font-size: 12px;&quot;&gt;&lt;div style=&quot;line-height: 18px; font-size: 12px;&quot;&gt;&lt;div style=&quot;line-height: 18px; font-size: 12px;&quot;&gt;&lt;div style=&quot;line-height: 18px; font-size: 12px;&quot;&gt;&lt;div style=&quot;line-height: 18px;&quot;&gt;&lt;div style=&quot;line-height: 18px;&quot;&gt;&lt;div style=&quot;background-color: rgb(31, 31, 31); line-height: 18px;&quot;&gt;&lt;div style=&quot;line-height: 18px;&quot;&gt;&lt;span style=&quot;color: rgb(156, 220, 254);&quot;&gt;node&lt;/span&gt;&lt;font color=&quot;#cccccc&quot;&gt;.&lt;/font&gt;&lt;span style=&quot;color: rgb(156, 220, 254);&quot;&gt;character&lt;/span&gt;&lt;/div&gt;&lt;/div&gt;&lt;/div&gt;&lt;/div&gt;&lt;/div&gt;&lt;/div&gt;&lt;/div&gt;&lt;/div&gt;&lt;/div&gt;" style="strokeWidth=2;html=1;shape=mxgraph.flowchart.terminator;whiteSpace=wrap;labelBackgroundColor=none;flipH=1;flipV=1;shadow=0;labelBorderColor=none;fillColor=#333333;fontSize=12;" vertex="1" parent="1">
                    <mxGeometry x="-4680" y="-364" width="230" height="60" as="geometry"/>
                </mxCell>
                <mxCell id="589" style="edgeStyle=none;html=1;entryX=0;entryY=0.5;entryDx=0;entryDy=0;labelBackgroundColor=none;" edge="1" parent="1" source="587" target="580">
                    <mxGeometry relative="1" as="geometry">
                        <Array as="points">
                            <mxPoint x="-4950" y="-195.5"/>
                            <mxPoint x="-4950" y="-523.5"/>
                        </Array>
                    </mxGeometry>
                </mxCell>
                <mxCell id="587" value="&lt;div style=&quot;font-family: Menlo, Monaco, &amp;quot;Courier New&amp;quot;, monospace; font-weight: normal; font-size: 12px; line-height: 18px;&quot;&gt;&lt;div style=&quot;line-height: 18px; font-size: 12px;&quot;&gt;&lt;div style=&quot;line-height: 18px; font-size: 12px;&quot;&gt;&lt;div style=&quot;line-height: 18px;&quot;&gt;&lt;div style=&quot;line-height: 18px;&quot;&gt;&lt;div style=&quot;line-height: 18px;&quot;&gt;&lt;div style=&quot;line-height: 18px;&quot;&gt;&lt;div style=&quot;line-height: 18px;&quot;&gt;&lt;div style=&quot;line-height: 18px;&quot;&gt;&lt;div style=&quot;line-height: 18px;&quot;&gt;&lt;div style=&quot;background-color: rgb(31, 31, 31); line-height: 18px;&quot;&gt;&lt;div style=&quot;line-height: 18px;&quot;&gt;&lt;div style=&quot;line-height: 18px;&quot;&gt;&lt;div style=&quot;line-height: 18px;&quot;&gt;&lt;div style=&quot;line-height: 18px;&quot;&gt;&lt;span style=&quot;color: rgb(156, 220, 254);&quot;&gt;node&lt;/span&gt; &lt;span style=&quot;color: rgb(212, 212, 212);&quot;&gt;=&lt;/span&gt; &lt;span style=&quot;color: rgb(156, 220, 254);&quot;&gt;node&lt;/span&gt;&lt;font color=&quot;#cccccc&quot;&gt;.&lt;/font&gt;&lt;span style=&quot;color: rgb(156, 220, 254);&quot;&gt;next&lt;/span&gt;&lt;/div&gt;&lt;/div&gt;&lt;/div&gt;&lt;/div&gt;&lt;/div&gt;&lt;/div&gt;&lt;/div&gt;&lt;/div&gt;&lt;/div&gt;&lt;/div&gt;&lt;/div&gt;&lt;/div&gt;&lt;/div&gt;&lt;/div&gt;&lt;/div&gt;" style="rounded=1;whiteSpace=wrap;html=1;labelBackgroundColor=none;flipH=1;flipV=1;shadow=0;labelBorderColor=none;fillColor=#333333;fontSize=12;" vertex="1" parent="1">
                    <mxGeometry x="-4905" y="-225.5" width="180" height="60" as="geometry"/>
                </mxCell>
                <mxCell id="590" value="&lt;div style=&quot;font-family: Menlo, Monaco, &amp;quot;Courier New&amp;quot;, monospace; line-height: 18px; font-size: 12px;&quot;&gt;&lt;div style=&quot;line-height: 18px; font-size: 12px;&quot;&gt;&lt;div style=&quot;line-height: 18px; font-size: 12px;&quot;&gt;&lt;div style=&quot;line-height: 18px; font-size: 12px;&quot;&gt;&lt;div style=&quot;line-height: 18px; font-size: 12px;&quot;&gt;&lt;div style=&quot;line-height: 18px;&quot;&gt;&lt;div style=&quot;line-height: 18px;&quot;&gt;&lt;div style=&quot;background-color: rgb(31, 31, 31); line-height: 18px;&quot;&gt;&lt;div style=&quot;line-height: 18px;&quot;&gt;&lt;div style=&quot;color: rgb(204, 204, 204); line-height: 18px;&quot;&gt;&lt;span style=&quot;color: #569cd6;&quot;&gt;NULL&lt;/span&gt;&lt;/div&gt;&lt;/div&gt;&lt;/div&gt;&lt;/div&gt;&lt;/div&gt;&lt;/div&gt;&lt;/div&gt;&lt;/div&gt;&lt;/div&gt;&lt;/div&gt;" style="strokeWidth=2;html=1;shape=mxgraph.flowchart.terminator;whiteSpace=wrap;labelBackgroundColor=none;flipH=1;flipV=1;shadow=0;labelBorderColor=none;fillColor=#333333;fontSize=12;" vertex="1" parent="1">
                    <mxGeometry x="-4680" y="-554" width="230" height="60" as="geometry"/>
                </mxCell>
                <mxCell id="593" value="yes" style="edgeStyle=none;html=1;labelBackgroundColor=none;fontSize=12;" edge="1" parent="1" source="595" target="597">
                    <mxGeometry x="0.0127" y="19" relative="1" as="geometry">
                        <mxPoint as="offset"/>
                    </mxGeometry>
                </mxCell>
                <mxCell id="594" value="no" style="edgeStyle=none;html=1;entryX=0.5;entryY=0;entryDx=0;entryDy=0;labelBackgroundColor=none;" edge="1" parent="1" source="595" target="599">
                    <mxGeometry x="-0.0659" y="16" relative="1" as="geometry">
                        <mxPoint as="offset"/>
                        <mxPoint x="-4228.62" y="-1967.5" as="targetPoint"/>
                    </mxGeometry>
                </mxCell>
                <mxCell id="595" value="&lt;div style=&quot;font-family: Menlo, Monaco, &amp;quot;Courier New&amp;quot;, monospace; font-weight: normal; font-size: 12px; line-height: 18px;&quot;&gt;&lt;span style=&quot;color: rgb(204, 204, 204); font-size: 12px;&quot;&gt;&lt;/span&gt;&lt;div style=&quot;line-height: 18px; font-size: 12px;&quot;&gt;&lt;span style=&quot;color: rgb(197, 134, 192); font-size: 12px;&quot;&gt;if&lt;/span&gt;&lt;span style=&quot;color: rgb(204, 204, 204); font-size: 12px;&quot;&gt;(&lt;/span&gt;&lt;/div&gt;&lt;div style=&quot;line-height: 18px; font-size: 12px;&quot;&gt;&lt;span style=&quot;color: rgb(156, 220, 254);&quot;&gt;!self&lt;/span&gt;&lt;/div&gt;&lt;div style=&quot;line-height: 18px; font-size: 12px;&quot;&gt;&lt;span style=&quot;color: rgb(204, 204, 204);&quot;&gt;)&lt;/span&gt;&lt;br&gt;&lt;/div&gt;&lt;/div&gt;" style="rhombus;whiteSpace=wrap;html=1;labelBackgroundColor=none;flipH=1;flipV=1;shadow=0;labelBorderColor=none;fillColor=#333333;fontSize=12;" vertex="1" parent="1">
                    <mxGeometry x="-4336.375" y="-2180" width="202.75" height="163" as="geometry"/>
                </mxCell>
                <mxCell id="596" style="edgeStyle=none;html=1;entryX=0.5;entryY=1;entryDx=0;entryDy=0;entryPerimeter=0;labelBackgroundColor=none;fontSize=12;" edge="1" parent="1" source="597" target="598">
                    <mxGeometry relative="1" as="geometry"/>
                </mxCell>
                <mxCell id="597" value="&lt;div style=&quot;color: rgb(204, 204, 204); font-family: Menlo, Monaco, &amp;quot;Courier New&amp;quot;, monospace; line-height: 18px; font-size: 12px;&quot;&gt;&lt;span style=&quot;color: rgb(220, 220, 170); font-size: 12px;&quot;&gt;ErrorHandler&lt;/span&gt;()&lt;/div&gt;" style="shape=process;whiteSpace=wrap;html=1;backgroundOutline=1;labelBackgroundColor=none;flipH=1;flipV=1;shadow=0;labelBorderColor=none;fillColor=#333333;fontSize=12;" vertex="1" parent="1">
                    <mxGeometry x="-4068.8599999999997" y="-2124" width="150" height="58" as="geometry"/>
                </mxCell>
                <mxCell id="598" value="&lt;div style=&quot;color: rgb(204, 204, 204); font-family: Menlo, Monaco, &amp;quot;Courier New&amp;quot;, monospace; line-height: 18px; font-size: 12px;&quot;&gt;&lt;div style=&quot;line-height: 18px; font-size: 12px;&quot;&gt;&lt;div style=&quot;line-height: 18px; font-size: 12px;&quot;&gt;&lt;div style=&quot;line-height: 18px; font-size: 12px;&quot;&gt;&lt;div style=&quot;line-height: 18px; font-size: 12px;&quot;&gt;&lt;div style=&quot;line-height: 18px;&quot;&gt;&lt;div style=&quot;line-height: 18px;&quot;&gt;&lt;span style=&quot;color: rgb(79, 193, 255); background-color: rgb(31, 31, 31);&quot;&gt;ERROR_NULL_POINTER&lt;/span&gt;&lt;br&gt;&lt;/div&gt;&lt;/div&gt;&lt;/div&gt;&lt;/div&gt;&lt;/div&gt;&lt;/div&gt;&lt;/div&gt;" style="strokeWidth=2;html=1;shape=mxgraph.flowchart.terminator;whiteSpace=wrap;labelBackgroundColor=none;flipH=1;flipV=1;shadow=0;labelBorderColor=none;fillColor=#333333;fontSize=12;" vertex="1" parent="1">
                    <mxGeometry x="-4108.86" y="-2029" width="230" height="60" as="geometry"/>
                </mxCell>
                <mxCell id="623" style="edgeStyle=none;html=1;entryX=0.5;entryY=0;entryDx=0;entryDy=0;labelBackgroundColor=none;" edge="1" parent="1" source="599" target="600">
                    <mxGeometry relative="1" as="geometry"/>
                </mxCell>
                <mxCell id="599" value="&lt;div style=&quot;font-family: Menlo, Monaco, &amp;quot;Courier New&amp;quot;, monospace; font-weight: normal; font-size: 12px; line-height: 18px;&quot;&gt;&lt;div style=&quot;line-height: 18px; font-size: 12px;&quot;&gt;&lt;div style=&quot;line-height: 18px; font-size: 12px;&quot;&gt;&lt;div style=&quot;line-height: 18px;&quot;&gt;&lt;div style=&quot;line-height: 18px;&quot;&gt;&lt;div style=&quot;line-height: 18px;&quot;&gt;&lt;div style=&quot;line-height: 18px;&quot;&gt;&lt;div style=&quot;line-height: 18px;&quot;&gt;&lt;div style=&quot;line-height: 18px;&quot;&gt;&lt;div style=&quot;background-color: rgb(31, 31, 31); line-height: 18px;&quot;&gt;&lt;div style=&quot;line-height: 18px;&quot;&gt;&lt;span style=&quot;background-color: rgb(42, 37, 47); color: rgb(156, 220, 254);&quot;&gt;self&lt;/span&gt;&lt;font color=&quot;#cccccc&quot;&gt;.&lt;/font&gt;&lt;span style=&quot;color: rgb(156, 220, 254);&quot;&gt;fontScale&lt;/span&gt; &lt;span style=&quot;color: rgb(212, 212, 212);&quot;&gt;=&lt;/span&gt; &lt;span style=&quot;color: rgb(156, 220, 254);&quot;&gt;scale&lt;/span&gt;&lt;/div&gt;&lt;/div&gt;&lt;/div&gt;&lt;/div&gt;&lt;/div&gt;&lt;/div&gt;&lt;/div&gt;&lt;/div&gt;&lt;/div&gt;&lt;/div&gt;&lt;/div&gt;" style="rounded=1;whiteSpace=wrap;html=1;labelBackgroundColor=none;flipH=1;flipV=1;shadow=0;labelBorderColor=none;fillColor=#333333;fontSize=12;" vertex="1" parent="1">
                    <mxGeometry x="-4325" y="-1967.5" width="180" height="60" as="geometry"/>
                </mxCell>
                <mxCell id="618" style="edgeStyle=none;html=1;labelBackgroundColor=none;" edge="1" parent="1" source="600" target="601">
                    <mxGeometry relative="1" as="geometry"/>
                </mxCell>
                <mxCell id="621" value="no" style="edgeStyle=none;html=1;entryX=1;entryY=0.5;entryDx=0;entryDy=0;entryPerimeter=0;labelBackgroundColor=none;" edge="1" parent="1" source="600" target="620">
                    <mxGeometry x="0.0635" y="9" relative="1" as="geometry">
                        <mxPoint as="offset"/>
                    </mxGeometry>
                </mxCell>
                <mxCell id="600" value="&lt;div style=&quot;font-family: Menlo, Monaco, &amp;quot;Courier New&amp;quot;, monospace; font-weight: normal; font-size: 12px; line-height: 18px;&quot;&gt;&lt;span style=&quot;color: rgb(204, 204, 204); font-size: 12px;&quot;&gt;&lt;/span&gt;&lt;div style=&quot;line-height: 18px; font-size: 12px;&quot;&gt;&lt;div style=&quot;color: rgb(204, 204, 204); line-height: 18px;&quot;&gt;&lt;span style=&quot;color: #c586c0;&quot;&gt;for&lt;/span&gt; (&lt;span style=&quot;background-color: initial; color: rgb(86, 156, 214);&quot;&gt;int&lt;/span&gt;&lt;span style=&quot;background-color: initial;&quot;&gt; &lt;/span&gt;&lt;span style=&quot;background-color: initial; color: rgb(156, 220, 254);&quot;&gt;i&lt;/span&gt;&lt;span style=&quot;background-color: initial;&quot;&gt; &lt;/span&gt;&lt;span style=&quot;background-color: initial; color: rgb(212, 212, 212);&quot;&gt;=&lt;/span&gt;&lt;span style=&quot;background-color: initial;&quot;&gt; &lt;/span&gt;&lt;span style=&quot;background-color: initial; color: rgb(181, 206, 168);&quot;&gt;0&lt;/span&gt;&lt;span style=&quot;background-color: initial;&quot;&gt;;&lt;/span&gt;&lt;/div&gt;&lt;div style=&quot;color: rgb(204, 204, 204); line-height: 18px;&quot;&gt;&amp;nbsp; &lt;span style=&quot;color: #9cdcfe;&quot;&gt;i&lt;/span&gt; &lt;span style=&quot;color: #d4d4d4;&quot;&gt;&amp;lt;&lt;/span&gt;&amp;nbsp;&lt;span style=&quot;background-color: initial; color: rgb(86, 156, 214);&quot;&gt;ASCII_CHARACTERS&lt;/span&gt;&lt;/div&gt;&lt;div style=&quot;color: rgb(204, 204, 204); line-height: 18px;&quot;&gt;&lt;span style=&quot;background-color: initial;&quot;&gt;&amp;nbsp;&lt;/span&gt;&lt;span style=&quot;background-color: initial; color: rgb(156, 220, 254);&quot;&gt;i&lt;/span&gt;&lt;span style=&quot;background-color: initial; color: rgb(212, 212, 212);&quot;&gt;++&lt;/span&gt;&lt;span style=&quot;background-color: initial;&quot;&gt;)&lt;/span&gt;&lt;/div&gt;&lt;/div&gt;&lt;/div&gt;" style="rhombus;whiteSpace=wrap;html=1;labelBackgroundColor=none;flipH=1;flipV=1;shadow=0;labelBorderColor=none;fillColor=#333333;fontSize=12;" vertex="1" parent="1">
                    <mxGeometry x="-4336.375" y="-1880.5" width="202.75" height="163" as="geometry"/>
                </mxCell>
                <mxCell id="619" style="edgeStyle=none;html=1;entryX=0.5;entryY=0;entryDx=0;entryDy=0;labelBackgroundColor=none;" edge="1" parent="1" source="601" target="602">
                    <mxGeometry relative="1" as="geometry"/>
                </mxCell>
                <mxCell id="601" value="&lt;div style=&quot;font-family: Menlo, Monaco, &amp;quot;Courier New&amp;quot;, monospace; font-weight: normal; font-size: 12px; line-height: 18px;&quot;&gt;&lt;div style=&quot;line-height: 18px; font-size: 12px;&quot;&gt;&lt;div style=&quot;line-height: 18px; font-size: 12px;&quot;&gt;&lt;div style=&quot;line-height: 18px;&quot;&gt;&lt;div style=&quot;line-height: 18px;&quot;&gt;&lt;div style=&quot;line-height: 18px;&quot;&gt;&lt;div style=&quot;line-height: 18px;&quot;&gt;&lt;div style=&quot;line-height: 18px;&quot;&gt;&lt;div style=&quot;line-height: 18px;&quot;&gt;&lt;div style=&quot;background-color: rgb(31, 31, 31); line-height: 18px;&quot;&gt;&lt;div style=&quot;line-height: 18px;&quot;&gt;&lt;div style=&quot;line-height: 18px;&quot;&gt;&lt;span style=&quot;color: rgb(156, 220, 254);&quot;&gt;node&lt;/span&gt; &lt;span style=&quot;color: rgb(212, 212, 212);&quot;&gt;=&lt;/span&gt;&amp;nbsp;&lt;span style=&quot;color: rgb(156, 220, 254); background-color: rgb(42, 37, 47);&quot;&gt;self&lt;/span&gt;&lt;font color=&quot;#cccccc&quot;&gt;.&lt;/font&gt;&lt;span style=&quot;color: rgb(156, 220, 254);&quot;&gt;table&lt;/span&gt;&lt;font color=&quot;#cccccc&quot;&gt;[&lt;/font&gt;&lt;span style=&quot;color: rgb(156, 220, 254);&quot;&gt;i&lt;/span&gt;&lt;font color=&quot;#cccccc&quot;&gt;]&lt;/font&gt;&lt;/div&gt;&lt;/div&gt;&lt;/div&gt;&lt;/div&gt;&lt;/div&gt;&lt;/div&gt;&lt;/div&gt;&lt;/div&gt;&lt;/div&gt;&lt;/div&gt;&lt;/div&gt;&lt;/div&gt;" style="rounded=1;whiteSpace=wrap;html=1;labelBackgroundColor=none;flipH=1;flipV=1;shadow=0;labelBorderColor=none;fillColor=#333333;fontSize=12;" vertex="1" parent="1">
                    <mxGeometry x="-4325" y="-1683" width="180" height="60" as="geometry"/>
                </mxCell>
                <mxCell id="614" value="yes" style="edgeStyle=none;html=1;entryX=0.5;entryY=0;entryDx=0;entryDy=0;labelBackgroundColor=none;" edge="1" parent="1" source="602" target="603">
                    <mxGeometry x="0.0244" y="15" relative="1" as="geometry">
                        <mxPoint as="offset"/>
                    </mxGeometry>
                </mxCell>
                <mxCell id="617" value="no" style="edgeStyle=none;html=1;entryX=0;entryY=0.5;entryDx=0;entryDy=0;labelBackgroundColor=none;exitX=0;exitY=0.5;exitDx=0;exitDy=0;" edge="1" parent="1" source="602" target="600">
                    <mxGeometry x="-0.9312" y="-8" relative="1" as="geometry">
                        <Array as="points">
                            <mxPoint x="-4390" y="-1512"/>
                            <mxPoint x="-4390" y="-1799"/>
                        </Array>
                        <mxPoint as="offset"/>
                    </mxGeometry>
                </mxCell>
                <mxCell id="602" value="&lt;div style=&quot;font-family: Menlo, Monaco, &amp;quot;Courier New&amp;quot;, monospace; font-weight: normal; font-size: 12px; line-height: 18px;&quot;&gt;&lt;font color=&quot;#c586c0&quot;&gt;&lt;span style=&quot;font-size: 12px;&quot;&gt;&lt;/span&gt;&lt;/font&gt;&lt;div style=&quot;line-height: 18px; font-size: 12px;&quot;&gt;&lt;div style=&quot;line-height: 18px;&quot;&gt;&lt;font color=&quot;#c586c0&quot;&gt;if(&lt;/font&gt;&lt;span style=&quot;color: rgb(156, 220, 254);&quot;&gt;node&lt;/span&gt;&lt;span style=&quot;background-color: rgb(31, 31, 31); color: rgb(204, 204, 204);&quot;&gt; &lt;/span&gt;&lt;span style=&quot;color: rgb(212, 212, 212);&quot;&gt;!=&lt;/span&gt;&lt;span style=&quot;background-color: rgb(31, 31, 31); color: rgb(204, 204, 204);&quot;&gt; &lt;/span&gt;&lt;span style=&quot;color: rgb(86, 156, 214);&quot;&gt;NULL&lt;/span&gt;&lt;span style=&quot;background-color: rgb(31, 31, 31); color: rgb(204, 204, 204);&quot;&gt;)&lt;/span&gt;&lt;/div&gt;&lt;/div&gt;&lt;/div&gt;" style="rhombus;whiteSpace=wrap;html=1;labelBackgroundColor=none;flipH=1;flipV=1;shadow=0;labelBorderColor=none;fillColor=#333333;fontSize=12;" vertex="1" parent="1">
                    <mxGeometry x="-4336.375" y="-1594" width="202.75" height="163" as="geometry"/>
                </mxCell>
                <mxCell id="613" style="edgeStyle=none;html=1;labelBackgroundColor=none;" edge="1" parent="1" source="603" target="604">
                    <mxGeometry relative="1" as="geometry"/>
                </mxCell>
                <mxCell id="603" value="&lt;div style=&quot;font-family: Menlo, Monaco, &amp;quot;Courier New&amp;quot;, monospace; font-weight: normal; font-size: 12px; line-height: 18px;&quot;&gt;&lt;div style=&quot;line-height: 18px; font-size: 12px;&quot;&gt;&lt;div style=&quot;line-height: 18px; font-size: 12px;&quot;&gt;&lt;div style=&quot;line-height: 18px;&quot;&gt;&lt;div style=&quot;line-height: 18px;&quot;&gt;&lt;div style=&quot;line-height: 18px;&quot;&gt;&lt;div style=&quot;line-height: 18px;&quot;&gt;&lt;div style=&quot;line-height: 18px;&quot;&gt;&lt;div style=&quot;line-height: 18px;&quot;&gt;&lt;div style=&quot;background-color: rgb(31, 31, 31); line-height: 18px;&quot;&gt;&lt;div style=&quot;line-height: 18px;&quot;&gt;&lt;div style=&quot;line-height: 18px;&quot;&gt;&lt;div style=&quot;color: rgb(204, 204, 204); line-height: 18px;&quot;&gt;&lt;span style=&quot;color: #9cdcfe;&quot;&gt;fontChar&lt;/span&gt; &lt;span style=&quot;color: #d4d4d4;&quot;&gt;=&lt;/span&gt; &lt;span style=&quot;color: #9cdcfe;&quot;&gt;node&lt;/span&gt;-&amp;gt;&lt;span style=&quot;color: #9cdcfe;&quot;&gt;character&lt;/span&gt;&lt;/div&gt;&lt;/div&gt;&lt;/div&gt;&lt;/div&gt;&lt;/div&gt;&lt;/div&gt;&lt;/div&gt;&lt;/div&gt;&lt;/div&gt;&lt;/div&gt;&lt;/div&gt;&lt;/div&gt;&lt;/div&gt;" style="rounded=1;whiteSpace=wrap;html=1;labelBackgroundColor=none;flipH=1;flipV=1;shadow=0;labelBorderColor=none;fillColor=#333333;fontSize=12;" vertex="1" parent="1">
                    <mxGeometry x="-4325" y="-1390" width="180" height="60" as="geometry"/>
                </mxCell>
                <mxCell id="607" value="yes" style="edgeStyle=none;html=1;labelBackgroundColor=none;" edge="1" parent="1" source="604" target="605">
                    <mxGeometry x="-0.0175" y="15" relative="1" as="geometry">
                        <mxPoint as="offset"/>
                    </mxGeometry>
                </mxCell>
                <mxCell id="615" value="no" style="edgeStyle=none;html=1;entryX=0;entryY=0.5;entryDx=0;entryDy=0;labelBackgroundColor=none;" edge="1" parent="1" source="604" target="610">
                    <mxGeometry x="-0.1005" y="15" relative="1" as="geometry">
                        <mxPoint as="offset"/>
                    </mxGeometry>
                </mxCell>
                <mxCell id="604" value="&lt;div style=&quot;font-family: Menlo, Monaco, &amp;quot;Courier New&amp;quot;, monospace; font-weight: normal; font-size: 12px; line-height: 18px;&quot;&gt;&lt;span style=&quot;color: rgb(204, 204, 204); font-size: 12px;&quot;&gt;&lt;/span&gt;&lt;div style=&quot;line-height: 18px; font-size: 12px;&quot;&gt;&lt;div style=&quot;line-height: 18px;&quot;&gt;&lt;div style=&quot;color: rgb(204, 204, 204); line-height: 18px;&quot;&gt;&lt;span style=&quot;color: #c586c0;&quot;&gt;for&lt;/span&gt; (&lt;/div&gt;&lt;div style=&quot;color: rgb(204, 204, 204); line-height: 18px;&quot;&gt;&lt;span style=&quot;color: #4ec9b0;&quot;&gt;uint8_t&lt;/span&gt; &lt;span style=&quot;color: #9cdcfe;&quot;&gt;j&lt;/span&gt; &lt;span style=&quot;color: #d4d4d4;&quot;&gt;=&lt;/span&gt; &lt;span style=&quot;color: #b5cea8;&quot;&gt;0&lt;/span&gt;;&amp;nbsp;&lt;span style=&quot;background-color: initial; color: rgb(156, 220, 254);&quot;&gt;j&lt;/span&gt;&lt;span style=&quot;background-color: initial; color: rgb(240, 240, 240);&quot;&gt; &lt;/span&gt;&lt;span style=&quot;background-color: initial; color: rgb(212, 212, 212);&quot;&gt;&amp;lt;&lt;/span&gt;&lt;span style=&quot;background-color: initial; color: rgb(240, 240, 240);&quot;&gt; &lt;/span&gt;&lt;span style=&quot;background-color: initial; color: rgb(156, 220, 254);&quot;&gt;fontChar&lt;/span&gt;&lt;font style=&quot;background-color: initial;&quot; color=&quot;#cccccc&quot;&gt;.&lt;/font&gt;&lt;span style=&quot;background-color: initial; color: rgb(156, 220, 254);&quot;&gt;numStrokes&lt;/span&gt;&lt;font style=&quot;background-color: initial;&quot; color=&quot;#cccccc&quot;&gt;;&lt;/font&gt;&lt;/div&gt;&lt;div style=&quot;color: rgb(204, 204, 204); line-height: 18px;&quot;&gt;&lt;font style=&quot;background-color: initial;&quot; color=&quot;#cccccc&quot;&gt;&amp;nbsp;&lt;/font&gt;&lt;span style=&quot;background-color: initial; color: rgb(156, 220, 254);&quot;&gt;j&lt;/span&gt;&lt;span style=&quot;background-color: initial; color: rgb(212, 212, 212);&quot;&gt;++&lt;/span&gt;&lt;font style=&quot;background-color: initial;&quot; color=&quot;#cccccc&quot;&gt;)&lt;/font&gt;&lt;/div&gt;&lt;/div&gt;&lt;/div&gt;&lt;/div&gt;" style="rhombus;whiteSpace=wrap;html=1;labelBackgroundColor=none;flipH=1;flipV=1;shadow=0;labelBorderColor=none;fillColor=#333333;fontSize=12;" vertex="1" parent="1">
                    <mxGeometry x="-4336.375" y="-1297" width="202.75" height="163" as="geometry"/>
                </mxCell>
                <mxCell id="608" style="edgeStyle=none;html=1;entryX=0.5;entryY=0;entryDx=0;entryDy=0;labelBackgroundColor=none;" edge="1" parent="1" source="605" target="606">
                    <mxGeometry relative="1" as="geometry"/>
                </mxCell>
                <mxCell id="605" value="&lt;div style=&quot;font-family: Menlo, Monaco, &amp;quot;Courier New&amp;quot;, monospace; font-weight: normal; font-size: 12px; line-height: 18px;&quot;&gt;&lt;div style=&quot;line-height: 18px; font-size: 12px;&quot;&gt;&lt;div style=&quot;line-height: 18px; font-size: 12px;&quot;&gt;&lt;div style=&quot;line-height: 18px;&quot;&gt;&lt;div style=&quot;line-height: 18px;&quot;&gt;&lt;div style=&quot;line-height: 18px;&quot;&gt;&lt;div style=&quot;line-height: 18px;&quot;&gt;&lt;div style=&quot;line-height: 18px;&quot;&gt;&lt;div style=&quot;line-height: 18px;&quot;&gt;&lt;div style=&quot;background-color: rgb(31, 31, 31); line-height: 18px;&quot;&gt;&lt;div style=&quot;line-height: 18px;&quot;&gt;&lt;div style=&quot;line-height: 18px;&quot;&gt;&lt;div style=&quot;line-height: 18px;&quot;&gt;&lt;div style=&quot;line-height: 18px;&quot;&gt;&lt;span style=&quot;color: rgb(156, 220, 254);&quot;&gt;fontChar&lt;/span&gt;&lt;font color=&quot;#cccccc&quot;&gt;.&lt;/font&gt;&lt;span style=&quot;color: rgb(156, 220, 254);&quot;&gt;strokes&lt;/span&gt;&lt;font color=&quot;#cccccc&quot;&gt;[&lt;/font&gt;&lt;span style=&quot;color: rgb(156, 220, 254);&quot;&gt;j&lt;/span&gt;&lt;font color=&quot;#cccccc&quot;&gt;].&lt;/font&gt;&lt;span style=&quot;color: rgb(156, 220, 254);&quot;&gt;vec&lt;/span&gt;&lt;font color=&quot;#cccccc&quot;&gt;.&lt;/font&gt;&lt;span style=&quot;color: rgb(156, 220, 254);&quot;&gt;x&lt;/span&gt; &lt;span style=&quot;color: rgb(212, 212, 212);&quot;&gt;*=&lt;/span&gt; &lt;span style=&quot;color: rgb(156, 220, 254);&quot;&gt;scale&lt;/span&gt;&lt;/div&gt;&lt;/div&gt;&lt;/div&gt;&lt;/div&gt;&lt;/div&gt;&lt;/div&gt;&lt;/div&gt;&lt;/div&gt;&lt;/div&gt;&lt;/div&gt;&lt;/div&gt;&lt;/div&gt;&lt;/div&gt;&lt;/div&gt;" style="rounded=1;whiteSpace=wrap;html=1;labelBackgroundColor=none;flipH=1;flipV=1;shadow=0;labelBorderColor=none;fillColor=#333333;fontSize=12;" vertex="1" parent="1">
                    <mxGeometry x="-4325" y="-1105.5" width="180" height="60" as="geometry"/>
                </mxCell>
                <mxCell id="609" style="edgeStyle=none;html=1;entryX=0;entryY=0.5;entryDx=0;entryDy=0;labelBackgroundColor=none;" edge="1" parent="1" source="606" target="604">
                    <mxGeometry relative="1" as="geometry">
                        <Array as="points">
                            <mxPoint x="-4370" y="-990"/>
                            <mxPoint x="-4370" y="-1215"/>
                        </Array>
                    </mxGeometry>
                </mxCell>
                <mxCell id="606" value="&lt;div style=&quot;font-family: Menlo, Monaco, &amp;quot;Courier New&amp;quot;, monospace; font-weight: normal; font-size: 12px; line-height: 18px;&quot;&gt;&lt;div style=&quot;line-height: 18px; font-size: 12px;&quot;&gt;&lt;div style=&quot;line-height: 18px; font-size: 12px;&quot;&gt;&lt;div style=&quot;line-height: 18px;&quot;&gt;&lt;div style=&quot;line-height: 18px;&quot;&gt;&lt;div style=&quot;line-height: 18px;&quot;&gt;&lt;div style=&quot;line-height: 18px;&quot;&gt;&lt;div style=&quot;line-height: 18px;&quot;&gt;&lt;div style=&quot;line-height: 18px;&quot;&gt;&lt;div style=&quot;background-color: rgb(31, 31, 31); line-height: 18px;&quot;&gt;&lt;div style=&quot;line-height: 18px;&quot;&gt;&lt;div style=&quot;line-height: 18px;&quot;&gt;&lt;div style=&quot;color: rgb(204, 204, 204); line-height: 18px;&quot;&gt;&lt;div style=&quot;line-height: 18px;&quot;&gt;&lt;span style=&quot;color: #9cdcfe;&quot;&gt;fontChar&lt;/span&gt;-&amp;gt;&lt;span style=&quot;color: #9cdcfe;&quot;&gt;strokes&lt;/span&gt;[&lt;span style=&quot;color: #9cdcfe;&quot;&gt;j&lt;/span&gt;].&lt;span style=&quot;color: #9cdcfe;&quot;&gt;vec&lt;/span&gt;.&lt;span style=&quot;color: #9cdcfe;&quot;&gt;y&lt;/span&gt; &lt;span style=&quot;color: #d4d4d4;&quot;&gt;*=&lt;/span&gt; &lt;span style=&quot;color: #9cdcfe;&quot;&gt;scale&lt;/span&gt;;&lt;/div&gt;&lt;/div&gt;&lt;/div&gt;&lt;/div&gt;&lt;/div&gt;&lt;/div&gt;&lt;/div&gt;&lt;/div&gt;&lt;/div&gt;&lt;/div&gt;&lt;/div&gt;&lt;/div&gt;&lt;/div&gt;&lt;/div&gt;" style="rounded=1;whiteSpace=wrap;html=1;labelBackgroundColor=none;flipH=1;flipV=1;shadow=0;labelBorderColor=none;fillColor=#333333;fontSize=12;" vertex="1" parent="1">
                    <mxGeometry x="-4325" y="-1020" width="180" height="60" as="geometry"/>
                </mxCell>
                <mxCell id="616" style="edgeStyle=none;html=1;entryX=1;entryY=0.5;entryDx=0;entryDy=0;labelBackgroundColor=none;" edge="1" parent="1" source="610" target="602">
                    <mxGeometry relative="1" as="geometry">
                        <Array as="points">
                            <mxPoint x="-3969" y="-1512"/>
                        </Array>
                    </mxGeometry>
                </mxCell>
                <mxCell id="610" value="&lt;div style=&quot;font-family: Menlo, Monaco, &amp;quot;Courier New&amp;quot;, monospace; font-weight: normal; font-size: 12px; line-height: 18px;&quot;&gt;&lt;div style=&quot;line-height: 18px; font-size: 12px;&quot;&gt;&lt;div style=&quot;line-height: 18px; font-size: 12px;&quot;&gt;&lt;div style=&quot;line-height: 18px;&quot;&gt;&lt;div style=&quot;line-height: 18px;&quot;&gt;&lt;div style=&quot;line-height: 18px;&quot;&gt;&lt;div style=&quot;line-height: 18px;&quot;&gt;&lt;div style=&quot;line-height: 18px;&quot;&gt;&lt;div style=&quot;line-height: 18px;&quot;&gt;&lt;div style=&quot;background-color: rgb(31, 31, 31); line-height: 18px;&quot;&gt;&lt;div style=&quot;line-height: 18px;&quot;&gt;&lt;div style=&quot;line-height: 18px;&quot;&gt;&lt;div style=&quot;line-height: 18px;&quot;&gt;&lt;div style=&quot;line-height: 18px;&quot;&gt;&lt;div style=&quot;color: rgb(204, 204, 204); line-height: 18px;&quot;&gt;&lt;span style=&quot;color: #9cdcfe;&quot;&gt;node&lt;/span&gt; &lt;span style=&quot;color: #d4d4d4;&quot;&gt;=&lt;/span&gt; &lt;span style=&quot;color: #9cdcfe;&quot;&gt;node&lt;/span&gt;-&amp;gt;&lt;span style=&quot;color: #9cdcfe;&quot;&gt;next&lt;/span&gt;&lt;/div&gt;&lt;/div&gt;&lt;/div&gt;&lt;/div&gt;&lt;/div&gt;&lt;/div&gt;&lt;/div&gt;&lt;/div&gt;&lt;/div&gt;&lt;/div&gt;&lt;/div&gt;&lt;/div&gt;&lt;/div&gt;&lt;/div&gt;&lt;/div&gt;" style="rounded=1;whiteSpace=wrap;html=1;labelBackgroundColor=none;flipH=1;flipV=1;shadow=0;labelBorderColor=none;fillColor=#333333;fontSize=12;" vertex="1" parent="1">
                    <mxGeometry x="-4058.8599999999997" y="-1245.5" width="180" height="60" as="geometry"/>
                </mxCell>
                <mxCell id="620" value="&lt;div style=&quot;color: rgb(204, 204, 204); font-family: Menlo, Monaco, &amp;quot;Courier New&amp;quot;, monospace; line-height: 18px; font-size: 12px;&quot;&gt;&lt;div style=&quot;line-height: 18px; font-size: 12px;&quot;&gt;&lt;div style=&quot;line-height: 18px; font-size: 12px;&quot;&gt;&lt;div style=&quot;line-height: 18px; font-size: 12px;&quot;&gt;&lt;div style=&quot;line-height: 18px; font-size: 12px;&quot;&gt;&lt;div style=&quot;line-height: 18px;&quot;&gt;&lt;div style=&quot;line-height: 18px;&quot;&gt;&lt;div style=&quot;background-color: rgb(31, 31, 31); line-height: 18px;&quot;&gt;&lt;span style=&quot;color: #4fc1ff;&quot;&gt;SUCCESS&lt;/span&gt;&lt;/div&gt;&lt;/div&gt;&lt;/div&gt;&lt;/div&gt;&lt;/div&gt;&lt;/div&gt;&lt;/div&gt;&lt;/div&gt;" style="strokeWidth=2;html=1;shape=mxgraph.flowchart.terminator;whiteSpace=wrap;labelBackgroundColor=none;flipH=1;flipV=1;shadow=0;labelBorderColor=none;fillColor=#333333;fontSize=12;" vertex="1" parent="1">
                    <mxGeometry x="-4068.86" y="-1831" width="148.86" height="60" as="geometry"/>
                </mxCell>
                <mxCell id="624" value="yes" style="edgeStyle=none;html=1;labelBackgroundColor=none;fontSize=12;" edge="1" parent="1" source="626" target="628">
                    <mxGeometry x="0.0127" y="19" relative="1" as="geometry">
                        <mxPoint as="offset"/>
                    </mxGeometry>
                </mxCell>
                <mxCell id="625" value="no" style="edgeStyle=none;html=1;entryX=0.5;entryY=0;entryDx=0;entryDy=0;labelBackgroundColor=none;" edge="1" parent="1" source="626" target="632">
                    <mxGeometry x="-0.0659" y="16" relative="1" as="geometry">
                        <mxPoint as="offset"/>
                        <mxPoint x="-2889.76" y="-2024.5" as="targetPoint"/>
                    </mxGeometry>
                </mxCell>
                <mxCell id="626" value="&lt;div style=&quot;font-family: Menlo, Monaco, &amp;quot;Courier New&amp;quot;, monospace; font-weight: normal; font-size: 12px; line-height: 18px;&quot;&gt;&lt;span style=&quot;color: rgb(204, 204, 204); font-size: 12px;&quot;&gt;&lt;/span&gt;&lt;div style=&quot;line-height: 18px; font-size: 12px;&quot;&gt;&lt;span style=&quot;color: rgb(197, 134, 192); font-size: 12px;&quot;&gt;if&lt;/span&gt;&lt;span style=&quot;color: rgb(204, 204, 204); font-size: 12px;&quot;&gt;(&lt;/span&gt;&lt;/div&gt;&lt;div style=&quot;line-height: 18px; font-size: 12px;&quot;&gt;&lt;span style=&quot;color: rgb(156, 220, 254);&quot;&gt;!self&lt;/span&gt;&lt;/div&gt;&lt;div style=&quot;line-height: 18px; font-size: 12px;&quot;&gt;&lt;span style=&quot;color: rgb(204, 204, 204);&quot;&gt;)&lt;/span&gt;&lt;br&gt;&lt;/div&gt;&lt;/div&gt;" style="rhombus;whiteSpace=wrap;html=1;labelBackgroundColor=none;flipH=1;flipV=1;shadow=0;labelBorderColor=none;fillColor=#333333;fontSize=12;" vertex="1" parent="1">
                    <mxGeometry x="-2991.135" y="-2237" width="202.75" height="163" as="geometry"/>
                </mxCell>
                <mxCell id="627" style="edgeStyle=none;html=1;entryX=0.5;entryY=1;entryDx=0;entryDy=0;entryPerimeter=0;labelBackgroundColor=none;fontSize=12;" edge="1" parent="1" source="628" target="629">
                    <mxGeometry relative="1" as="geometry"/>
                </mxCell>
                <mxCell id="628" value="&lt;div style=&quot;color: rgb(204, 204, 204); font-family: Menlo, Monaco, &amp;quot;Courier New&amp;quot;, monospace; line-height: 18px; font-size: 12px;&quot;&gt;&lt;span style=&quot;color: rgb(220, 220, 170); font-size: 12px;&quot;&gt;ErrorHandler&lt;/span&gt;()&lt;/div&gt;" style="shape=process;whiteSpace=wrap;html=1;backgroundOutline=1;labelBackgroundColor=none;flipH=1;flipV=1;shadow=0;labelBorderColor=none;fillColor=#333333;fontSize=12;" vertex="1" parent="1">
                    <mxGeometry x="-2723.62" y="-2181" width="150" height="58" as="geometry"/>
                </mxCell>
                <mxCell id="629" value="&lt;div style=&quot;color: rgb(204, 204, 204); font-family: Menlo, Monaco, &amp;quot;Courier New&amp;quot;, monospace; line-height: 18px; font-size: 12px;&quot;&gt;&lt;div style=&quot;line-height: 18px; font-size: 12px;&quot;&gt;&lt;div style=&quot;line-height: 18px; font-size: 12px;&quot;&gt;&lt;div style=&quot;line-height: 18px; font-size: 12px;&quot;&gt;&lt;div style=&quot;line-height: 18px; font-size: 12px;&quot;&gt;&lt;div style=&quot;line-height: 18px;&quot;&gt;&lt;div style=&quot;line-height: 18px;&quot;&gt;&lt;span style=&quot;color: rgb(79, 193, 255); background-color: rgb(31, 31, 31);&quot;&gt;ERROR_NULL_POINTER&lt;/span&gt;&lt;br&gt;&lt;/div&gt;&lt;/div&gt;&lt;/div&gt;&lt;/div&gt;&lt;/div&gt;&lt;/div&gt;&lt;/div&gt;" style="strokeWidth=2;html=1;shape=mxgraph.flowchart.terminator;whiteSpace=wrap;labelBackgroundColor=none;flipH=1;flipV=1;shadow=0;labelBorderColor=none;fillColor=#333333;fontSize=12;" vertex="1" parent="1">
                    <mxGeometry x="-2763.62" y="-2086" width="230" height="60" as="geometry"/>
                </mxCell>
                <mxCell id="630" style="edgeStyle=none;html=1;labelBackgroundColor=none;" edge="1" parent="1" source="632" target="634">
                    <mxGeometry relative="1" as="geometry"/>
                </mxCell>
                <mxCell id="631" value="no" style="edgeStyle=none;html=1;entryX=1;entryY=0.5;entryDx=0;entryDy=0;entryPerimeter=0;labelBackgroundColor=none;" edge="1" parent="1" source="632" target="649">
                    <mxGeometry x="0.0635" y="9" relative="1" as="geometry">
                        <mxPoint as="offset"/>
                    </mxGeometry>
                </mxCell>
                <mxCell id="632" value="&lt;div style=&quot;font-family: Menlo, Monaco, &amp;quot;Courier New&amp;quot;, monospace; font-weight: normal; font-size: 12px; line-height: 18px;&quot;&gt;&lt;span style=&quot;color: rgb(204, 204, 204); font-size: 12px;&quot;&gt;&lt;/span&gt;&lt;div style=&quot;line-height: 18px; font-size: 12px;&quot;&gt;&lt;div style=&quot;color: rgb(204, 204, 204); line-height: 18px;&quot;&gt;&lt;span style=&quot;color: #c586c0;&quot;&gt;for&lt;/span&gt; (&lt;span style=&quot;background-color: initial; color: rgb(86, 156, 214);&quot;&gt;int&lt;/span&gt;&lt;span style=&quot;background-color: initial;&quot;&gt; &lt;/span&gt;&lt;span style=&quot;background-color: initial; color: rgb(156, 220, 254);&quot;&gt;i&lt;/span&gt;&lt;span style=&quot;background-color: initial;&quot;&gt; &lt;/span&gt;&lt;span style=&quot;background-color: initial; color: rgb(212, 212, 212);&quot;&gt;=&lt;/span&gt;&lt;span style=&quot;background-color: initial;&quot;&gt; &lt;/span&gt;&lt;span style=&quot;background-color: initial; color: rgb(181, 206, 168);&quot;&gt;0&lt;/span&gt;&lt;span style=&quot;background-color: initial;&quot;&gt;;&lt;/span&gt;&lt;/div&gt;&lt;div style=&quot;color: rgb(204, 204, 204); line-height: 18px;&quot;&gt;&amp;nbsp; &lt;span style=&quot;color: #9cdcfe;&quot;&gt;i&lt;/span&gt; &lt;span style=&quot;color: #d4d4d4;&quot;&gt;&amp;lt;&lt;/span&gt;&amp;nbsp;&lt;span style=&quot;background-color: initial; color: rgb(86, 156, 214);&quot;&gt;ASCII_CHARACTERS&lt;/span&gt;&lt;/div&gt;&lt;div style=&quot;color: rgb(204, 204, 204); line-height: 18px;&quot;&gt;&lt;span style=&quot;background-color: initial;&quot;&gt;&amp;nbsp;&lt;/span&gt;&lt;span style=&quot;background-color: initial; color: rgb(156, 220, 254);&quot;&gt;i&lt;/span&gt;&lt;span style=&quot;background-color: initial; color: rgb(212, 212, 212);&quot;&gt;++&lt;/span&gt;&lt;span style=&quot;background-color: initial;&quot;&gt;)&lt;/span&gt;&lt;/div&gt;&lt;/div&gt;&lt;/div&gt;" style="rhombus;whiteSpace=wrap;html=1;labelBackgroundColor=none;flipH=1;flipV=1;shadow=0;labelBorderColor=none;fillColor=#333333;fontSize=12;" vertex="1" parent="1">
                    <mxGeometry x="-2989.995" y="-2026" width="202.75" height="163" as="geometry"/>
                </mxCell>
                <mxCell id="633" style="edgeStyle=none;html=1;entryX=0.5;entryY=0;entryDx=0;entryDy=0;labelBackgroundColor=none;" edge="1" parent="1" source="634" target="637">
                    <mxGeometry relative="1" as="geometry"/>
                </mxCell>
                <mxCell id="634" value="&lt;div style=&quot;font-family: Menlo, Monaco, &amp;quot;Courier New&amp;quot;, monospace; font-weight: normal; font-size: 12px; line-height: 18px;&quot;&gt;&lt;div style=&quot;line-height: 18px; font-size: 12px;&quot;&gt;&lt;div style=&quot;line-height: 18px; font-size: 12px;&quot;&gt;&lt;div style=&quot;line-height: 18px;&quot;&gt;&lt;div style=&quot;line-height: 18px;&quot;&gt;&lt;div style=&quot;line-height: 18px;&quot;&gt;&lt;div style=&quot;line-height: 18px;&quot;&gt;&lt;div style=&quot;line-height: 18px;&quot;&gt;&lt;div style=&quot;line-height: 18px;&quot;&gt;&lt;div style=&quot;background-color: rgb(31, 31, 31); line-height: 18px;&quot;&gt;&lt;div style=&quot;line-height: 18px;&quot;&gt;&lt;div style=&quot;line-height: 18px;&quot;&gt;&lt;span style=&quot;color: rgb(156, 220, 254);&quot;&gt;node&lt;/span&gt; &lt;span style=&quot;color: rgb(212, 212, 212);&quot;&gt;=&lt;/span&gt;&amp;nbsp;&lt;span style=&quot;color: rgb(156, 220, 254); background-color: rgb(42, 37, 47);&quot;&gt;self&lt;/span&gt;&lt;font color=&quot;#cccccc&quot;&gt;.&lt;/font&gt;&lt;span style=&quot;color: rgb(156, 220, 254);&quot;&gt;table&lt;/span&gt;&lt;font color=&quot;#cccccc&quot;&gt;[&lt;/font&gt;&lt;span style=&quot;color: rgb(156, 220, 254);&quot;&gt;i&lt;/span&gt;&lt;font color=&quot;#cccccc&quot;&gt;]&lt;/font&gt;&lt;/div&gt;&lt;/div&gt;&lt;/div&gt;&lt;/div&gt;&lt;/div&gt;&lt;/div&gt;&lt;/div&gt;&lt;/div&gt;&lt;/div&gt;&lt;/div&gt;&lt;/div&gt;&lt;/div&gt;" style="rounded=1;whiteSpace=wrap;html=1;labelBackgroundColor=none;flipH=1;flipV=1;shadow=0;labelBorderColor=none;fillColor=#333333;fontSize=12;" vertex="1" parent="1">
                    <mxGeometry x="-2978.62" y="-1828.5" width="180" height="60" as="geometry"/>
                </mxCell>
                <mxCell id="635" value="yes" style="edgeStyle=none;html=1;entryX=0.5;entryY=0;entryDx=0;entryDy=0;labelBackgroundColor=none;" edge="1" parent="1" source="637" target="639">
                    <mxGeometry x="0.0244" y="15" relative="1" as="geometry">
                        <mxPoint as="offset"/>
                    </mxGeometry>
                </mxCell>
                <mxCell id="636" value="no" style="edgeStyle=none;html=1;entryX=0;entryY=0.5;entryDx=0;entryDy=0;labelBackgroundColor=none;exitX=0;exitY=0.5;exitDx=0;exitDy=0;" edge="1" parent="1" source="637" target="632">
                    <mxGeometry x="-0.9312" y="-8" relative="1" as="geometry">
                        <Array as="points">
                            <mxPoint x="-3043.62" y="-1657.5"/>
                            <mxPoint x="-3043.62" y="-1944.5"/>
                        </Array>
                        <mxPoint as="offset"/>
                    </mxGeometry>
                </mxCell>
                <mxCell id="637" value="&lt;div style=&quot;font-family: Menlo, Monaco, &amp;quot;Courier New&amp;quot;, monospace; font-weight: normal; font-size: 12px; line-height: 18px;&quot;&gt;&lt;font color=&quot;#c586c0&quot;&gt;&lt;span style=&quot;font-size: 12px;&quot;&gt;&lt;/span&gt;&lt;/font&gt;&lt;div style=&quot;line-height: 18px; font-size: 12px;&quot;&gt;&lt;div style=&quot;line-height: 18px;&quot;&gt;&lt;font color=&quot;#c586c0&quot;&gt;if(&lt;/font&gt;&lt;span style=&quot;color: rgb(156, 220, 254);&quot;&gt;node&lt;/span&gt;&lt;span style=&quot;background-color: rgb(31, 31, 31); color: rgb(204, 204, 204);&quot;&gt; &lt;/span&gt;&lt;span style=&quot;color: rgb(212, 212, 212);&quot;&gt;!=&lt;/span&gt;&lt;span style=&quot;background-color: rgb(31, 31, 31); color: rgb(204, 204, 204);&quot;&gt; &lt;/span&gt;&lt;span style=&quot;color: rgb(86, 156, 214);&quot;&gt;NULL&lt;/span&gt;&lt;span style=&quot;background-color: rgb(31, 31, 31); color: rgb(204, 204, 204);&quot;&gt;)&lt;/span&gt;&lt;/div&gt;&lt;/div&gt;&lt;/div&gt;" style="rhombus;whiteSpace=wrap;html=1;labelBackgroundColor=none;flipH=1;flipV=1;shadow=0;labelBorderColor=none;fillColor=#333333;fontSize=12;" vertex="1" parent="1">
                    <mxGeometry x="-2989.995" y="-1739.5" width="202.75" height="163" as="geometry"/>
                </mxCell>
                <mxCell id="638" style="edgeStyle=none;html=1;labelBackgroundColor=none;" edge="1" parent="1" source="639" target="642">
                    <mxGeometry relative="1" as="geometry"/>
                </mxCell>
                <mxCell id="639" value="&lt;div style=&quot;font-family: Menlo, Monaco, &amp;quot;Courier New&amp;quot;, monospace; font-weight: normal; font-size: 12px; line-height: 18px;&quot;&gt;&lt;div style=&quot;line-height: 18px; font-size: 12px;&quot;&gt;&lt;div style=&quot;line-height: 18px; font-size: 12px;&quot;&gt;&lt;div style=&quot;line-height: 18px;&quot;&gt;&lt;div style=&quot;line-height: 18px;&quot;&gt;&lt;div style=&quot;line-height: 18px;&quot;&gt;&lt;div style=&quot;line-height: 18px;&quot;&gt;&lt;div style=&quot;line-height: 18px;&quot;&gt;&lt;div style=&quot;line-height: 18px;&quot;&gt;&lt;div style=&quot;background-color: rgb(31, 31, 31); line-height: 18px;&quot;&gt;&lt;div style=&quot;line-height: 18px;&quot;&gt;&lt;div style=&quot;line-height: 18px;&quot;&gt;&lt;div style=&quot;color: rgb(204, 204, 204); line-height: 18px;&quot;&gt;&lt;span style=&quot;color: #9cdcfe;&quot;&gt;fontChar&lt;/span&gt; &lt;span style=&quot;color: #d4d4d4;&quot;&gt;=&lt;/span&gt; &lt;span style=&quot;color: #9cdcfe;&quot;&gt;node&lt;/span&gt;-&amp;gt;&lt;span style=&quot;color: #9cdcfe;&quot;&gt;character&lt;/span&gt;&lt;/div&gt;&lt;/div&gt;&lt;/div&gt;&lt;/div&gt;&lt;/div&gt;&lt;/div&gt;&lt;/div&gt;&lt;/div&gt;&lt;/div&gt;&lt;/div&gt;&lt;/div&gt;&lt;/div&gt;&lt;/div&gt;" style="rounded=1;whiteSpace=wrap;html=1;labelBackgroundColor=none;flipH=1;flipV=1;shadow=0;labelBorderColor=none;fillColor=#333333;fontSize=12;" vertex="1" parent="1">
                    <mxGeometry x="-2978.62" y="-1535.5" width="180" height="60" as="geometry"/>
                </mxCell>
                <mxCell id="640" value="no" style="edgeStyle=none;html=1;labelBackgroundColor=none;" edge="1" parent="1" source="642" target="644">
                    <mxGeometry x="-0.0175" y="15" relative="1" as="geometry">
                        <mxPoint as="offset"/>
                    </mxGeometry>
                </mxCell>
                <mxCell id="641" value="yes" style="edgeStyle=none;html=1;entryX=1;entryY=0.5;entryDx=0;entryDy=0;labelBackgroundColor=none;" edge="1" parent="1" source="642" target="648">
                    <mxGeometry x="-0.1005" y="15" relative="1" as="geometry">
                        <mxPoint as="offset"/>
                    </mxGeometry>
                </mxCell>
                <mxCell id="642" value="&lt;div style=&quot;font-family: Menlo, Monaco, &amp;quot;Courier New&amp;quot;, monospace; font-weight: normal; font-size: 12px; line-height: 18px;&quot;&gt;&lt;span style=&quot;color: rgb(204, 204, 204); font-size: 12px;&quot;&gt;&lt;/span&gt;&lt;div style=&quot;line-height: 18px; font-size: 12px;&quot;&gt;&lt;div style=&quot;line-height: 18px;&quot;&gt;&lt;div style=&quot;color: rgb(204, 204, 204); line-height: 18px;&quot;&gt;&lt;div style=&quot;background-color: rgb(31, 31, 31); line-height: 18px;&quot;&gt;&lt;span style=&quot;color: #c586c0;&quot;&gt;if&lt;/span&gt; (&lt;span style=&quot;color: #9cdcfe;&quot;&gt;node&lt;/span&gt;-&amp;gt;&lt;span style=&quot;color: #9cdcfe;&quot;&gt;character&lt;/span&gt;)&lt;/div&gt;&lt;/div&gt;&lt;/div&gt;&lt;/div&gt;&lt;/div&gt;" style="rhombus;whiteSpace=wrap;html=1;labelBackgroundColor=none;flipH=1;flipV=1;shadow=0;labelBorderColor=none;fillColor=#333333;fontSize=12;" vertex="1" parent="1">
                    <mxGeometry x="-2989.995" y="-1442.5" width="202.75" height="163" as="geometry"/>
                </mxCell>
                <mxCell id="643" style="edgeStyle=none;html=1;entryX=0.5;entryY=0;entryDx=0;entryDy=0;labelBackgroundColor=none;" edge="1" parent="1" source="644" target="646">
                    <mxGeometry relative="1" as="geometry"/>
                </mxCell>
                <mxCell id="644" value="&lt;div style=&quot;font-family: Menlo, Monaco, &amp;quot;Courier New&amp;quot;, monospace; font-weight: normal; font-size: 12px; line-height: 18px;&quot;&gt;&lt;div style=&quot;line-height: 18px; font-size: 12px;&quot;&gt;&lt;div style=&quot;line-height: 18px; font-size: 12px;&quot;&gt;&lt;div style=&quot;line-height: 18px;&quot;&gt;&lt;div style=&quot;line-height: 18px;&quot;&gt;&lt;div style=&quot;line-height: 18px;&quot;&gt;&lt;div style=&quot;line-height: 18px;&quot;&gt;&lt;div style=&quot;line-height: 18px;&quot;&gt;&lt;div style=&quot;line-height: 18px;&quot;&gt;&lt;div style=&quot;background-color: rgb(31, 31, 31); line-height: 18px;&quot;&gt;&lt;div style=&quot;line-height: 18px;&quot;&gt;&lt;div style=&quot;line-height: 18px;&quot;&gt;&lt;div style=&quot;line-height: 18px;&quot;&gt;&lt;div style=&quot;line-height: 18px;&quot;&gt;&lt;div style=&quot;color: rgb(204, 204, 204); line-height: 18px;&quot;&gt; &lt;span style=&quot;color: #dcdcaa;&quot;&gt;free&lt;/span&gt;(&lt;span style=&quot;color: #9cdcfe;&quot;&gt;node&lt;/span&gt;)&lt;/div&gt;&lt;/div&gt;&lt;/div&gt;&lt;/div&gt;&lt;/div&gt;&lt;/div&gt;&lt;/div&gt;&lt;/div&gt;&lt;/div&gt;&lt;/div&gt;&lt;/div&gt;&lt;/div&gt;&lt;/div&gt;&lt;/div&gt;&lt;/div&gt;" style="rounded=1;whiteSpace=wrap;html=1;labelBackgroundColor=none;flipH=1;flipV=1;shadow=0;labelBorderColor=none;fillColor=#333333;fontSize=12;" vertex="1" parent="1">
                    <mxGeometry x="-2982.9300000000003" y="-1251" width="188.62" height="60" as="geometry"/>
                </mxCell>
                <mxCell id="651" style="edgeStyle=none;html=1;entryX=1;entryY=0.5;entryDx=0;entryDy=0;labelBackgroundColor=none;" edge="1" parent="1" source="646" target="637">
                    <mxGeometry relative="1" as="geometry">
                        <Array as="points">
                            <mxPoint x="-2720" y="-1135"/>
                            <mxPoint x="-2720" y="-1658"/>
                        </Array>
                    </mxGeometry>
                </mxCell>
                <mxCell id="646" value="&lt;div style=&quot;font-family: Menlo, Monaco, &amp;quot;Courier New&amp;quot;, monospace; font-weight: normal; font-size: 12px; line-height: 18px;&quot;&gt;&lt;div style=&quot;line-height: 18px; font-size: 12px;&quot;&gt;&lt;div style=&quot;line-height: 18px; font-size: 12px;&quot;&gt;&lt;div style=&quot;line-height: 18px;&quot;&gt;&lt;div style=&quot;line-height: 18px;&quot;&gt;&lt;div style=&quot;line-height: 18px;&quot;&gt;&lt;div style=&quot;line-height: 18px;&quot;&gt;&lt;div style=&quot;line-height: 18px;&quot;&gt;&lt;div style=&quot;line-height: 18px;&quot;&gt;&lt;div style=&quot;background-color: rgb(31, 31, 31); line-height: 18px;&quot;&gt;&lt;div style=&quot;line-height: 18px;&quot;&gt;&lt;div style=&quot;line-height: 18px;&quot;&gt;&lt;div style=&quot;color: rgb(204, 204, 204); line-height: 18px;&quot;&gt;&lt;div style=&quot;line-height: 18px;&quot;&gt;&lt;div style=&quot;line-height: 18px;&quot;&gt;&lt;span style=&quot;color: #9cdcfe;&quot;&gt;node&lt;/span&gt; &lt;span style=&quot;color: #d4d4d4;&quot;&gt;=&lt;/span&gt; &lt;span style=&quot;color: #9cdcfe;&quot;&gt;next_node&lt;/span&gt;&lt;/div&gt;&lt;/div&gt;&lt;/div&gt;&lt;/div&gt;&lt;/div&gt;&lt;/div&gt;&lt;/div&gt;&lt;/div&gt;&lt;/div&gt;&lt;/div&gt;&lt;/div&gt;&lt;/div&gt;&lt;/div&gt;&lt;/div&gt;&lt;/div&gt;" style="rounded=1;whiteSpace=wrap;html=1;labelBackgroundColor=none;flipH=1;flipV=1;shadow=0;labelBorderColor=none;fillColor=#333333;fontSize=12;" vertex="1" parent="1">
                    <mxGeometry x="-2978.62" y="-1165.5" width="180" height="60" as="geometry"/>
                </mxCell>
                <mxCell id="652" style="edgeStyle=none;html=1;entryX=0;entryY=0.5;entryDx=0;entryDy=0;labelBackgroundColor=none;" edge="1" parent="1" source="648" target="644">
                    <mxGeometry relative="1" as="geometry">
                        <Array as="points">
                            <mxPoint x="-3140" y="-1221"/>
                        </Array>
                    </mxGeometry>
                </mxCell>
                <mxCell id="648" value="&lt;div style=&quot;font-family: Menlo, Monaco, &amp;quot;Courier New&amp;quot;, monospace; font-weight: normal; font-size: 12px; line-height: 18px;&quot;&gt;&lt;div style=&quot;line-height: 18px; font-size: 12px;&quot;&gt;&lt;div style=&quot;line-height: 18px; font-size: 12px;&quot;&gt;&lt;div style=&quot;line-height: 18px;&quot;&gt;&lt;div style=&quot;line-height: 18px;&quot;&gt;&lt;div style=&quot;line-height: 18px;&quot;&gt;&lt;div style=&quot;line-height: 18px;&quot;&gt;&lt;div style=&quot;line-height: 18px;&quot;&gt;&lt;div style=&quot;line-height: 18px;&quot;&gt;&lt;div style=&quot;background-color: rgb(31, 31, 31); line-height: 18px;&quot;&gt;&lt;div style=&quot;line-height: 18px;&quot;&gt;&lt;div style=&quot;line-height: 18px;&quot;&gt;&lt;div style=&quot;line-height: 18px;&quot;&gt;&lt;div style=&quot;line-height: 18px;&quot;&gt;&lt;div style=&quot;line-height: 18px;&quot;&gt;&lt;div style=&quot;line-height: 18px;&quot;&gt; &lt;span style=&quot;color: rgb(156, 220, 254);&quot;&gt;node&lt;/span&gt;&lt;font color=&quot;#cccccc&quot;&gt;.&lt;/font&gt;&lt;span style=&quot;color: rgb(156, 220, 254);&quot;&gt;character&lt;/span&gt;&lt;font color=&quot;#cccccc&quot;&gt;.&lt;/font&gt;&lt;span style=&quot;color: rgb(220, 220, 170);&quot;&gt;free&lt;/span&gt;&lt;font color=&quot;#cccccc&quot;&gt;(&lt;/font&gt;&lt;/div&gt;&lt;div style=&quot;line-height: 18px;&quot;&gt;&lt;span style=&quot;color: rgb(156, 220, 254);&quot;&gt;node&lt;/span&gt;&lt;font color=&quot;#cccccc&quot;&gt;.&lt;/font&gt;&lt;span style=&quot;color: rgb(156, 220, 254);&quot;&gt;character&lt;/span&gt;&lt;font color=&quot;#cccccc&quot;&gt;)&lt;/font&gt;&lt;/div&gt;&lt;/div&gt;&lt;/div&gt;&lt;/div&gt;&lt;/div&gt;&lt;/div&gt;&lt;/div&gt;&lt;/div&gt;&lt;/div&gt;&lt;/div&gt;&lt;/div&gt;&lt;/div&gt;&lt;/div&gt;&lt;/div&gt;&lt;/div&gt;&lt;/div&gt;" style="rounded=1;whiteSpace=wrap;html=1;labelBackgroundColor=none;flipH=1;flipV=1;shadow=0;labelBorderColor=none;fillColor=#333333;fontSize=12;" vertex="1" parent="1">
                    <mxGeometry x="-3230" y="-1391" width="180" height="60" as="geometry"/>
                </mxCell>
                <mxCell id="649" value="&lt;div style=&quot;color: rgb(204, 204, 204); font-family: Menlo, Monaco, &amp;quot;Courier New&amp;quot;, monospace; line-height: 18px; font-size: 12px;&quot;&gt;&lt;div style=&quot;line-height: 18px; font-size: 12px;&quot;&gt;&lt;div style=&quot;line-height: 18px; font-size: 12px;&quot;&gt;&lt;div style=&quot;line-height: 18px; font-size: 12px;&quot;&gt;&lt;div style=&quot;line-height: 18px; font-size: 12px;&quot;&gt;&lt;div style=&quot;line-height: 18px;&quot;&gt;&lt;div style=&quot;line-height: 18px;&quot;&gt;&lt;div style=&quot;background-color: rgb(31, 31, 31); line-height: 18px;&quot;&gt;&lt;span style=&quot;color: #4fc1ff;&quot;&gt;SUCCESS&lt;/span&gt;&lt;/div&gt;&lt;/div&gt;&lt;/div&gt;&lt;/div&gt;&lt;/div&gt;&lt;/div&gt;&lt;/div&gt;&lt;/div&gt;" style="strokeWidth=2;html=1;shape=mxgraph.flowchart.terminator;whiteSpace=wrap;labelBackgroundColor=none;flipH=1;flipV=1;shadow=0;labelBorderColor=none;fillColor=#333333;fontSize=12;" vertex="1" parent="1">
                    <mxGeometry x="-2722.4800000000005" y="-1976.5" width="148.86" height="60" as="geometry"/>
                </mxCell>
                <mxCell id="654" value="yes" style="edgeStyle=none;html=1;labelBackgroundColor=none;fontSize=12;" edge="1" parent="1" source="656" target="658">
                    <mxGeometry x="0.0127" y="19" relative="1" as="geometry">
                        <mxPoint as="offset"/>
                    </mxGeometry>
                </mxCell>
                <mxCell id="655" value="no" style="edgeStyle=none;html=1;labelBackgroundColor=none;entryX=0.5;entryY=0;entryDx=0;entryDy=0;" edge="1" parent="1" source="656" target="663">
                    <mxGeometry x="-0.0659" y="16" relative="1" as="geometry">
                        <mxPoint as="offset"/>
                        <mxPoint x="-2267" y="-2010" as="targetPoint"/>
                    </mxGeometry>
                </mxCell>
                <mxCell id="656" value="&lt;div style=&quot;font-family: Menlo, Monaco, &amp;quot;Courier New&amp;quot;, monospace; font-weight: normal; font-size: 12px; line-height: 18px;&quot;&gt;&lt;span style=&quot;color: rgb(204, 204, 204); font-size: 12px;&quot;&gt;&lt;/span&gt;&lt;div style=&quot;line-height: 18px; font-size: 12px;&quot;&gt;&lt;span style=&quot;color: rgb(197, 134, 192); font-size: 12px;&quot;&gt;if&lt;/span&gt;&lt;span style=&quot;color: rgb(204, 204, 204); font-size: 12px;&quot;&gt;(&lt;/span&gt;&lt;/div&gt;&lt;div style=&quot;line-height: 18px; font-size: 12px;&quot;&gt;&lt;span style=&quot;color: rgb(156, 220, 254);&quot;&gt;!self&lt;/span&gt;&lt;/div&gt;&lt;div style=&quot;line-height: 18px; font-size: 12px;&quot;&gt;&lt;span style=&quot;color: rgb(204, 204, 204);&quot;&gt;)&lt;/span&gt;&lt;br&gt;&lt;/div&gt;&lt;/div&gt;" style="rhombus;whiteSpace=wrap;html=1;labelBackgroundColor=none;flipH=1;flipV=1;shadow=0;labelBorderColor=none;fillColor=#333333;fontSize=12;" vertex="1" parent="1">
                    <mxGeometry x="-2366.375" y="-2220" width="202.75" height="163" as="geometry"/>
                </mxCell>
                <mxCell id="657" style="edgeStyle=none;html=1;entryX=0.5;entryY=1;entryDx=0;entryDy=0;entryPerimeter=0;labelBackgroundColor=none;fontSize=12;" edge="1" parent="1" source="658" target="659">
                    <mxGeometry relative="1" as="geometry"/>
                </mxCell>
                <mxCell id="658" value="&lt;div style=&quot;color: rgb(204, 204, 204); font-family: Menlo, Monaco, &amp;quot;Courier New&amp;quot;, monospace; line-height: 18px; font-size: 12px;&quot;&gt;&lt;span style=&quot;color: rgb(220, 220, 170); font-size: 12px;&quot;&gt;ErrorHandler&lt;/span&gt;()&lt;/div&gt;" style="shape=process;whiteSpace=wrap;html=1;backgroundOutline=1;labelBackgroundColor=none;flipH=1;flipV=1;shadow=0;labelBorderColor=none;fillColor=#333333;fontSize=12;" vertex="1" parent="1">
                    <mxGeometry x="-2102.48" y="-2164" width="150" height="58" as="geometry"/>
                </mxCell>
                <mxCell id="659" value="&lt;div style=&quot;color: rgb(204, 204, 204); font-family: Menlo, Monaco, &amp;quot;Courier New&amp;quot;, monospace; line-height: 18px; font-size: 12px;&quot;&gt;&lt;div style=&quot;line-height: 18px; font-size: 12px;&quot;&gt;&lt;div style=&quot;line-height: 18px; font-size: 12px;&quot;&gt;&lt;div style=&quot;line-height: 18px; font-size: 12px;&quot;&gt;&lt;div style=&quot;line-height: 18px; font-size: 12px;&quot;&gt;&lt;div style=&quot;line-height: 18px;&quot;&gt;&lt;div style=&quot;line-height: 18px;&quot;&gt;&lt;span style=&quot;color: rgb(79, 193, 255); background-color: rgb(31, 31, 31);&quot;&gt;ERROR_NULL_POINTER&lt;/span&gt;&lt;br&gt;&lt;/div&gt;&lt;/div&gt;&lt;/div&gt;&lt;/div&gt;&lt;/div&gt;&lt;/div&gt;&lt;/div&gt;" style="strokeWidth=2;html=1;shape=mxgraph.flowchart.terminator;whiteSpace=wrap;labelBackgroundColor=none;flipH=1;flipV=1;shadow=0;labelBorderColor=none;fillColor=#333333;fontSize=12;" vertex="1" parent="1">
                    <mxGeometry x="-2142.48" y="-2069" width="230" height="60" as="geometry"/>
                </mxCell>
                <mxCell id="661" value="yes" style="edgeStyle=none;html=1;labelBackgroundColor=none;fontSize=12;" edge="1" parent="1" source="663" target="665">
                    <mxGeometry x="0.0127" y="19" relative="1" as="geometry">
                        <mxPoint as="offset"/>
                    </mxGeometry>
                </mxCell>
                <mxCell id="662" value="no" style="edgeStyle=none;html=1;labelBackgroundColor=none;" edge="1" parent="1" source="663">
                    <mxGeometry x="-0.0659" y="16" relative="1" as="geometry">
                        <mxPoint as="offset"/>
                        <mxPoint x="-2265" y="-1798" as="targetPoint"/>
                    </mxGeometry>
                </mxCell>
                <mxCell id="663" value="&lt;div style=&quot;font-family: Menlo, Monaco, &amp;quot;Courier New&amp;quot;, monospace; font-weight: normal; font-size: 12px; line-height: 18px;&quot;&gt;&lt;span style=&quot;color: rgb(204, 204, 204); font-size: 12px;&quot;&gt;&lt;/span&gt;&lt;div style=&quot;line-height: 18px; font-size: 12px;&quot;&gt;&lt;span style=&quot;color: rgb(197, 134, 192); font-size: 12px;&quot;&gt;if&lt;/span&gt;&lt;span style=&quot;color: rgb(204, 204, 204); font-size: 12px;&quot;&gt;(&lt;/span&gt;&lt;/div&gt;&lt;div style=&quot;line-height: 18px; font-size: 12px;&quot;&gt;&lt;span style=&quot;color: rgb(156, 220, 254);&quot;&gt;!filename&lt;/span&gt;&lt;/div&gt;&lt;div style=&quot;line-height: 18px; font-size: 12px;&quot;&gt;&lt;span style=&quot;color: rgb(204, 204, 204);&quot;&gt;)&lt;/span&gt;&lt;br&gt;&lt;/div&gt;&lt;/div&gt;" style="rhombus;whiteSpace=wrap;html=1;labelBackgroundColor=none;flipH=1;flipV=1;shadow=0;labelBorderColor=none;fillColor=#333333;fontSize=12;" vertex="1" parent="1">
                    <mxGeometry x="-2366.375" y="-2009" width="202.75" height="163" as="geometry"/>
                </mxCell>
                <mxCell id="664" style="edgeStyle=none;html=1;entryX=0.5;entryY=1;entryDx=0;entryDy=0;entryPerimeter=0;labelBackgroundColor=none;fontSize=12;" edge="1" parent="1" source="665" target="666">
                    <mxGeometry relative="1" as="geometry"/>
                </mxCell>
                <mxCell id="665" value="&lt;div style=&quot;color: rgb(204, 204, 204); font-family: Menlo, Monaco, &amp;quot;Courier New&amp;quot;, monospace; line-height: 18px; font-size: 12px;&quot;&gt;&lt;span style=&quot;color: rgb(220, 220, 170); font-size: 12px;&quot;&gt;ErrorHandler&lt;/span&gt;()&lt;/div&gt;" style="shape=process;whiteSpace=wrap;html=1;backgroundOutline=1;labelBackgroundColor=none;flipH=1;flipV=1;shadow=0;labelBorderColor=none;fillColor=#333333;fontSize=12;" vertex="1" parent="1">
                    <mxGeometry x="-2102.48" y="-1953" width="150" height="58" as="geometry"/>
                </mxCell>
                <mxCell id="666" value="&lt;div style=&quot;color: rgb(204, 204, 204); font-family: Menlo, Monaco, &amp;quot;Courier New&amp;quot;, monospace; line-height: 18px; font-size: 12px;&quot;&gt;&lt;div style=&quot;line-height: 18px; font-size: 12px;&quot;&gt;&lt;div style=&quot;line-height: 18px; font-size: 12px;&quot;&gt;&lt;div style=&quot;line-height: 18px; font-size: 12px;&quot;&gt;&lt;div style=&quot;line-height: 18px; font-size: 12px;&quot;&gt;&lt;div style=&quot;line-height: 18px;&quot;&gt;&lt;div style=&quot;line-height: 18px;&quot;&gt;&lt;span style=&quot;color: rgb(79, 193, 255); background-color: rgb(31, 31, 31);&quot;&gt;ERROR_NULL_POINTER&lt;/span&gt;&lt;br&gt;&lt;/div&gt;&lt;/div&gt;&lt;/div&gt;&lt;/div&gt;&lt;/div&gt;&lt;/div&gt;&lt;/div&gt;" style="strokeWidth=2;html=1;shape=mxgraph.flowchart.terminator;whiteSpace=wrap;labelBackgroundColor=none;flipH=1;flipV=1;shadow=0;labelBorderColor=none;fillColor=#333333;fontSize=12;" vertex="1" parent="1">
                    <mxGeometry x="-2142.48" y="-1858" width="230" height="60" as="geometry"/>
                </mxCell>
                <mxCell id="674" style="edgeStyle=none;html=1;entryX=0.5;entryY=0;entryDx=0;entryDy=0;labelBackgroundColor=none;" edge="1" parent="1" source="667" target="670">
                    <mxGeometry relative="1" as="geometry"/>
                </mxCell>
                <mxCell id="667" value="&lt;div style=&quot;font-family: Menlo, Monaco, &amp;quot;Courier New&amp;quot;, monospace; font-weight: normal; font-size: 12px; line-height: 18px;&quot;&gt;&lt;div style=&quot;line-height: 18px; font-size: 12px;&quot;&gt;&lt;div style=&quot;line-height: 18px; font-size: 12px;&quot;&gt;&lt;div style=&quot;line-height: 18px;&quot;&gt;&lt;div style=&quot;line-height: 18px;&quot;&gt;&lt;div style=&quot;line-height: 18px;&quot;&gt;&lt;div style=&quot;line-height: 18px;&quot;&gt;&lt;div style=&quot;line-height: 18px;&quot;&gt;&lt;div style=&quot;line-height: 18px;&quot;&gt;&lt;div style=&quot;background-color: rgb(31, 31, 31); line-height: 18px;&quot;&gt;&lt;div style=&quot;line-height: 18px;&quot;&gt;&lt;div style=&quot;line-height: 18px;&quot;&gt;&lt;div style=&quot;line-height: 18px; color: rgb(204, 204, 204);&quot;&gt;&lt;span style=&quot;color: rgb(220, 220, 170);&quot;&gt;fopen&lt;/span&gt;(&lt;span style=&quot;color: rgb(156, 220, 254);&quot;&gt;filename&lt;/span&gt;,&amp;nbsp;&lt;span style=&quot;color: rgb(206, 145, 120);&quot;&gt;&quot;r&quot;&lt;/span&gt;)&lt;br&gt;&lt;/div&gt;&lt;/div&gt;&lt;/div&gt;&lt;/div&gt;&lt;/div&gt;&lt;/div&gt;&lt;/div&gt;&lt;/div&gt;&lt;/div&gt;&lt;/div&gt;&lt;/div&gt;&lt;/div&gt;&lt;/div&gt;" style="rounded=1;whiteSpace=wrap;html=1;labelBackgroundColor=none;flipH=1;flipV=1;shadow=0;labelBorderColor=none;fillColor=#333333;fontSize=12;" vertex="1" parent="1">
                    <mxGeometry x="-2355" y="-1798" width="180" height="60" as="geometry"/>
                </mxCell>
                <mxCell id="668" value="yes" style="edgeStyle=none;html=1;labelBackgroundColor=none;fontSize=12;" edge="1" parent="1" source="670" target="672">
                    <mxGeometry x="0.0127" y="19" relative="1" as="geometry">
                        <mxPoint as="offset"/>
                    </mxGeometry>
                </mxCell>
                <mxCell id="669" value="no" style="edgeStyle=none;html=1;labelBackgroundColor=none;" edge="1" parent="1" source="670">
                    <mxGeometry x="-0.0659" y="16" relative="1" as="geometry">
                        <mxPoint as="offset"/>
                        <mxPoint x="-2265" y="-1506.5" as="targetPoint"/>
                    </mxGeometry>
                </mxCell>
                <mxCell id="670" value="&lt;div style=&quot;font-family: Menlo, Monaco, &amp;quot;Courier New&amp;quot;, monospace; font-weight: normal; font-size: 12px; line-height: 18px;&quot;&gt;&lt;span style=&quot;color: rgb(204, 204, 204); font-size: 12px;&quot;&gt;&lt;/span&gt;&lt;div style=&quot;line-height: 18px; font-size: 12px;&quot;&gt;&lt;span style=&quot;color: rgb(197, 134, 192); font-size: 12px;&quot;&gt;if&lt;/span&gt;&lt;span style=&quot;color: rgb(204, 204, 204); font-size: 12px;&quot;&gt;(&lt;/span&gt;&lt;/div&gt;&lt;div style=&quot;line-height: 18px; font-size: 12px;&quot;&gt;&lt;span style=&quot;color: rgb(156, 220, 254);&quot;&gt;!&lt;/span&gt;&lt;span style=&quot;color: rgb(156, 220, 254); background-color: rgb(31, 31, 31);&quot;&gt;file&lt;/span&gt;&lt;/div&gt;&lt;div style=&quot;line-height: 18px; font-size: 12px;&quot;&gt;&lt;span style=&quot;color: rgb(204, 204, 204);&quot;&gt;)&lt;/span&gt;&lt;br&gt;&lt;/div&gt;&lt;/div&gt;" style="rhombus;whiteSpace=wrap;html=1;labelBackgroundColor=none;flipH=1;flipV=1;shadow=0;labelBorderColor=none;fillColor=#333333;fontSize=12;" vertex="1" parent="1">
                    <mxGeometry x="-2366.375" y="-1717.5" width="202.75" height="163" as="geometry"/>
                </mxCell>
                <mxCell id="671" style="edgeStyle=none;html=1;entryX=0.5;entryY=1;entryDx=0;entryDy=0;entryPerimeter=0;labelBackgroundColor=none;fontSize=12;" edge="1" parent="1" source="672" target="673">
                    <mxGeometry relative="1" as="geometry"/>
                </mxCell>
                <mxCell id="672" value="&lt;div style=&quot;color: rgb(204, 204, 204); font-family: Menlo, Monaco, &amp;quot;Courier New&amp;quot;, monospace; line-height: 18px; font-size: 12px;&quot;&gt;&lt;span style=&quot;color: rgb(220, 220, 170); font-size: 12px;&quot;&gt;ErrorHandler&lt;/span&gt;()&lt;/div&gt;" style="shape=process;whiteSpace=wrap;html=1;backgroundOutline=1;labelBackgroundColor=none;flipH=1;flipV=1;shadow=0;labelBorderColor=none;fillColor=#333333;fontSize=12;" vertex="1" parent="1">
                    <mxGeometry x="-2102.48" y="-1661.5" width="150" height="58" as="geometry"/>
                </mxCell>
                <mxCell id="673" value="&lt;div style=&quot;color: rgb(204, 204, 204); font-family: Menlo, Monaco, &amp;quot;Courier New&amp;quot;, monospace; line-height: 18px; font-size: 12px;&quot;&gt;&lt;div style=&quot;line-height: 18px; font-size: 12px;&quot;&gt;&lt;div style=&quot;line-height: 18px; font-size: 12px;&quot;&gt;&lt;div style=&quot;line-height: 18px; font-size: 12px;&quot;&gt;&lt;div style=&quot;line-height: 18px; font-size: 12px;&quot;&gt;&lt;div style=&quot;line-height: 18px;&quot;&gt;&lt;div style=&quot;line-height: 18px;&quot;&gt;&lt;div style=&quot;background-color: rgb(31, 31, 31); line-height: 18px;&quot;&gt;&lt;span style=&quot;color: #4fc1ff;&quot;&gt;ERROR_OPEN_FILE&lt;/span&gt;&lt;/div&gt;&lt;/div&gt;&lt;/div&gt;&lt;/div&gt;&lt;/div&gt;&lt;/div&gt;&lt;/div&gt;&lt;/div&gt;" style="strokeWidth=2;html=1;shape=mxgraph.flowchart.terminator;whiteSpace=wrap;labelBackgroundColor=none;flipH=1;flipV=1;shadow=0;labelBorderColor=none;fillColor=#333333;fontSize=12;" vertex="1" parent="1">
                    <mxGeometry x="-2142.48" y="-1566.5" width="230" height="60" as="geometry"/>
                </mxCell>
                <mxCell id="680" value="no" style="edgeStyle=none;html=1;entryX=0;entryY=0.5;entryDx=0;entryDy=0;labelBackgroundColor=none;" edge="1" parent="1" source="676" target="677">
                    <mxGeometry x="-0.1251" y="15" relative="1" as="geometry">
                        <mxPoint as="offset"/>
                    </mxGeometry>
                </mxCell>
                <mxCell id="684" value="yes" style="edgeStyle=none;html=1;entryX=0.5;entryY=0;entryDx=0;entryDy=0;labelBackgroundColor=none;" edge="1" parent="1" source="676" target="682">
                    <mxGeometry x="-0.7705" y="15" relative="1" as="geometry">
                        <mxPoint as="offset"/>
                    </mxGeometry>
                </mxCell>
                <mxCell id="676" value="&lt;div style=&quot;font-family: Menlo, Monaco, &amp;quot;Courier New&amp;quot;, monospace; font-weight: normal; font-size: 12px; line-height: 18px;&quot;&gt;&lt;span style=&quot;color: rgb(204, 204, 204); font-size: 12px;&quot;&gt;&lt;/span&gt;&lt;div style=&quot;line-height: 18px; font-size: 12px;&quot;&gt;&lt;span style=&quot;color: rgb(197, 134, 192); font-size: 12px;&quot;&gt;if&lt;/span&gt;&lt;span style=&quot;color: rgb(204, 204, 204); font-size: 12px;&quot;&gt;(&lt;/span&gt;&lt;/div&gt;&lt;div style=&quot;line-height: 18px; font-size: 12px;&quot;&gt;&lt;span style=&quot;color: rgb(220, 220, 170);&quot;&gt;fgets&lt;/span&gt;&lt;span style=&quot;background-color: rgb(31, 31, 31); color: rgb(204, 204, 204);&quot;&gt;(&lt;/span&gt;&lt;span style=&quot;background-color: rgb(31, 31, 31);&quot;&gt;&lt;font color=&quot;#9cdcfe&quot;&gt;line&lt;/font&gt;&lt;/span&gt;&lt;span style=&quot;background-color: rgb(31, 31, 31); color: rgb(204, 204, 204);&quot;&gt;)&lt;/span&gt;&lt;/div&gt;&lt;div style=&quot;line-height: 18px; font-size: 12px;&quot;&gt;&lt;span style=&quot;color: rgb(204, 204, 204);&quot;&gt;)&lt;/span&gt;&lt;br&gt;&lt;/div&gt;&lt;/div&gt;" style="rhombus;whiteSpace=wrap;html=1;labelBackgroundColor=none;flipH=1;flipV=1;shadow=0;labelBorderColor=none;fillColor=#333333;fontSize=12;" vertex="1" parent="1">
                    <mxGeometry x="-2366.375" y="-1506.5" width="202.75" height="163" as="geometry"/>
                </mxCell>
                <mxCell id="681" style="edgeStyle=none;html=1;entryX=1;entryY=0.5;entryDx=0;entryDy=0;entryPerimeter=0;labelBackgroundColor=none;" edge="1" parent="1" source="677" target="679">
                    <mxGeometry relative="1" as="geometry"/>
                </mxCell>
                <mxCell id="677" value="&lt;div style=&quot;font-family: Menlo, Monaco, &amp;quot;Courier New&amp;quot;, monospace; font-weight: normal; font-size: 12px; line-height: 18px;&quot;&gt;&lt;div style=&quot;line-height: 18px; font-size: 12px;&quot;&gt;&lt;div style=&quot;line-height: 18px; font-size: 12px;&quot;&gt;&lt;div style=&quot;line-height: 18px;&quot;&gt;&lt;div style=&quot;line-height: 18px;&quot;&gt;&lt;div style=&quot;line-height: 18px;&quot;&gt;&lt;div style=&quot;line-height: 18px;&quot;&gt;&lt;div style=&quot;line-height: 18px;&quot;&gt;&lt;div style=&quot;line-height: 18px;&quot;&gt;&lt;div style=&quot;background-color: rgb(31, 31, 31); line-height: 18px;&quot;&gt;&lt;div style=&quot;line-height: 18px;&quot;&gt;&lt;div style=&quot;line-height: 18px;&quot;&gt;&lt;div style=&quot;line-height: 18px; color: rgb(204, 204, 204);&quot;&gt;&lt;div style=&quot;line-height: 18px;&quot;&gt;&lt;span style=&quot;color: #dcdcaa;&quot;&gt;fclose&lt;/span&gt;(&lt;span style=&quot;color: #9cdcfe;&quot;&gt;file&lt;/span&gt;)&lt;/div&gt;&lt;/div&gt;&lt;/div&gt;&lt;/div&gt;&lt;/div&gt;&lt;/div&gt;&lt;/div&gt;&lt;/div&gt;&lt;/div&gt;&lt;/div&gt;&lt;/div&gt;&lt;/div&gt;&lt;/div&gt;&lt;/div&gt;" style="rounded=1;whiteSpace=wrap;html=1;labelBackgroundColor=none;flipH=1;flipV=1;shadow=0;labelBorderColor=none;fillColor=#333333;fontSize=12;" vertex="1" parent="1">
                    <mxGeometry x="-2132.48" y="-1455" width="180" height="60" as="geometry"/>
                </mxCell>
                <mxCell id="679" value="&lt;div style=&quot;color: rgb(204, 204, 204); font-family: Menlo, Monaco, &amp;quot;Courier New&amp;quot;, monospace; line-height: 18px; font-size: 12px;&quot;&gt;&lt;div style=&quot;line-height: 18px; font-size: 12px;&quot;&gt;&lt;div style=&quot;line-height: 18px; font-size: 12px;&quot;&gt;&lt;div style=&quot;line-height: 18px; font-size: 12px;&quot;&gt;&lt;div style=&quot;line-height: 18px; font-size: 12px;&quot;&gt;&lt;div style=&quot;line-height: 18px;&quot;&gt;&lt;div style=&quot;line-height: 18px;&quot;&gt;&lt;div style=&quot;background-color: rgb(31, 31, 31); line-height: 18px;&quot;&gt;&lt;div style=&quot;line-height: 18px;&quot;&gt;&lt;span style=&quot;color: #4fc1ff;&quot;&gt;SUCCESS&lt;/span&gt;&lt;/div&gt;&lt;/div&gt;&lt;/div&gt;&lt;/div&gt;&lt;/div&gt;&lt;/div&gt;&lt;/div&gt;&lt;/div&gt;&lt;/div&gt;" style="strokeWidth=2;html=1;shape=mxgraph.flowchart.terminator;whiteSpace=wrap;labelBackgroundColor=none;flipH=1;flipV=1;shadow=0;labelBorderColor=none;fillColor=#333333;fontSize=12;" vertex="1" parent="1">
                    <mxGeometry x="-1920" y="-1455" width="230" height="60" as="geometry"/>
                </mxCell>
                <mxCell id="683" value="no" style="edgeStyle=none;html=1;entryX=0;entryY=0.5;entryDx=0;entryDy=0;labelBackgroundColor=none;exitX=0;exitY=0.5;exitDx=0;exitDy=0;" edge="1" parent="1" source="682" target="676">
                    <mxGeometry x="-0.9061" y="-15" relative="1" as="geometry">
                        <Array as="points">
                            <mxPoint x="-2420" y="-1230"/>
                            <mxPoint x="-2420" y="-1425"/>
                        </Array>
                        <mxPoint as="offset"/>
                    </mxGeometry>
                </mxCell>
                <mxCell id="692" value="yes" style="edgeStyle=none;html=1;entryX=0.5;entryY=0;entryDx=0;entryDy=0;labelBackgroundColor=none;" edge="1" parent="1" source="682" target="685">
                    <mxGeometry x="-0.3117" y="16" relative="1" as="geometry">
                        <mxPoint as="offset"/>
                    </mxGeometry>
                </mxCell>
                <mxCell id="682" value="&lt;div style=&quot;font-family: Menlo, Monaco, &amp;quot;Courier New&amp;quot;, monospace; font-weight: normal; font-size: 12px; line-height: 18px;&quot;&gt;&lt;span style=&quot;color: rgb(204, 204, 204); font-size: 12px;&quot;&gt;&lt;/span&gt;&lt;div style=&quot;line-height: 18px; font-size: 12px;&quot;&gt;&lt;span style=&quot;color: rgb(197, 134, 192); font-size: 12px;&quot;&gt;if&lt;/span&gt;&lt;span style=&quot;color: rgb(204, 204, 204); font-size: 12px;&quot;&gt;(&lt;/span&gt;&lt;/div&gt;&lt;div style=&quot;line-height: 18px; font-size: 12px;&quot;&gt;&lt;span style=&quot;color: rgba(0, 0, 0, 0); font-family: monospace; font-size: 0px; text-align: start;&quot;&gt;%3CmxGraphModel%3E%3Croot%3E%3CmxCell%20id%3D%220%22%2F%3E%3CmxCell%20id%3D%221%22%20parent%3D%220%22%2F%3E%3CmxCell%20id%3D%222%22%20value%3D%22%26lt%3Bdiv%20style%3D%26quot%3Bfont-family%3A%20Menlo%2C%20Monaco%2C%20%26amp%3Bquot%3BCourier%20New%26amp%3Bquot%3B%2C%20monospace%3B%20font-weight%3A%20normal%3B%20font-size%3A%2012px%3B%20line-height%3A%2018px%3B%26quot%3B%26gt%3B%26lt%3Bspan%20style%3D%26quot%3Bcolor%3A%20rgb(204%2C%20204%2C%20204)%3B%20font-size%3A%2012px%3B%26quot%3B%26gt%3B%26lt%3B%2Fspan%26gt%3B%26lt%3Bdiv%20style%3D%26quot%3Bline-height%3A%2018px%3B%20font-size%3A%2012px%3B%26quot%3B%26gt%3B%26lt%3Bspan%20style%3D%26quot%3Bcolor%3A%20rgb(197%2C%20134%2C%20192)%3B%20font-size%3A%2012px%3B%26quot%3B%26gt%3Bif%26lt%3B%2Fspan%26gt%3B%26lt%3Bspan%20style%3D%26quot%3Bcolor%3A%20rgb(204%2C%20204%2C%20204)%3B%20font-size%3A%2012px%3B%26quot%3B%26gt%3B(%26lt%3B%2Fspan%26gt%3B%26lt%3B%2Fdiv%26gt%3B%26lt%3Bdiv%20style%3D%26quot%3Bline-height%3A%2018px%3B%20font-size%3A%2012px%3B%26quot%3B%26gt%3B%26lt%3Bspan%20style%3D%26quot%3Bcolor%3A%20rgb(156%2C%20220%2C%20254)%3B%26quot%3B%26gt%3B!%26lt%3B%2Fspan%26gt%3B%26lt%3Bspan%20style%3D%26quot%3Bcolor%3A%20rgb(220%2C%20220%2C%20170)%3B%26quot%3B%26gt%3Bfgets%26lt%3B%2Fspan%26gt%3B%26lt%3Bspan%20style%3D%26quot%3Bbackground-color%3A%20rgb(31%2C%2031%2C%2031)%3B%20color%3A%20rgb(204%2C%20204%2C%20204)%3B%26quot%3B%26gt%3B(%26lt%3B%2Fspan%26gt%3B%26lt%3Bspan%20style%3D%26quot%3Bbackground-color%3A%20rgb(31%2C%2031%2C%2031)%3B%26quot%3B%26gt%3B%26lt%3Bfont%20color%3D%26quot%3B%239cdcfe%26quot%3B%26gt%3Bline%26lt%3B%2Ffont%26gt%3B%26lt%3B%2Fspan%26gt%3B%26lt%3Bspan%20style%3D%26quot%3Bbackground-color%3A%20rgb(31%2C%2031%2C%2031)%3B%20color%3A%20rgb(204%2C%20204%2C%20204)%3B%26quot%3B%26gt%3B)%26lt%3B%2Fspan%26gt%3B%26lt%3B%2Fdiv%26gt%3B%26lt%3Bdiv%20style%3D%26quot%3Bline-height%3A%2018px%3B%20font-size%3A%2012px%3B%26quot%3B%26gt%3B%26lt%3Bspan%20style%3D%26quot%3Bcolor%3A%20rgb(204%2C%20204%2C%20204)%3B%26quot%3B%26gt%3B)%26lt%3B%2Fspan%26gt%3B%26lt%3Bbr%26gt%3B%26lt%3B%2Fdiv%26gt%3B%26lt%3B%2Fdiv%26gt%3B%22%20style%3D%22rhombus%3BwhiteSpace%3Dwrap%3Bhtml%3D1%3BlabelBackgroundColor%3Dnone%3BflipH%3D1%3BflipV%3D1%3Bshadow%3D0%3BlabelBorderColor%3Dnone%3BfillColor%3D%23333333%3BfontSize%3D12%3B%22%20vertex%3D%221%22%20parent%3D%221%22%3E%3CmxGeometry%20x%3D%22-2366.375%22%20y%3D%22-1506.5%22%20width%3D%22202.75%22%20height%3D%22163%22%20as%3D%22geometry%22%2F%3E%3C%2FmxCell%3E%3C%2Froot%3E%3C%2FmxGraphModel%3E&lt;/span&gt;&lt;span style=&quot;background-color: rgb(31, 31, 31); color: rgb(156, 220, 254);&quot;&gt;&amp;nbsp;line.start ==&amp;nbsp;&lt;/span&gt;&lt;span style=&quot;color: rgb(206, 145, 120); background-color: rgb(31, 31, 31);&quot;&gt;&quot;999&quot;&lt;/span&gt;&lt;/div&gt;&lt;div style=&quot;line-height: 18px; font-size: 12px;&quot;&gt;&lt;span style=&quot;background-color: initial; color: rgb(204, 204, 204);&quot;&gt;)&lt;/span&gt;&lt;br&gt;&lt;/div&gt;&lt;/div&gt;" style="rhombus;whiteSpace=wrap;html=1;labelBackgroundColor=none;flipH=1;flipV=1;shadow=0;labelBorderColor=none;fillColor=#333333;fontSize=12;" vertex="1" parent="1">
                    <mxGeometry x="-2366.375" y="-1313" width="202.75" height="163" as="geometry"/>
                </mxCell>
                <mxCell id="693" style="edgeStyle=none;html=1;entryX=0.5;entryY=0;entryDx=0;entryDy=0;labelBackgroundColor=none;" edge="1" parent="1" source="685" target="688">
                    <mxGeometry relative="1" as="geometry"/>
                </mxCell>
                <mxCell id="685" value="&lt;div style=&quot;color: rgb(204, 204, 204); font-family: Menlo, Monaco, &amp;quot;Courier New&amp;quot;, monospace; line-height: 18px; font-size: 12px;&quot;&gt;&lt;div style=&quot;background-color: rgb(31, 31, 31); line-height: 18px;&quot;&gt;&lt;span style=&quot;color: rgb(156, 220, 254);&quot;&gt;fontChar =&lt;/span&gt;&lt;/div&gt;&lt;div style=&quot;background-color: rgb(31, 31, 31); line-height: 18px;&quot;&gt;&lt;span style=&quot;color: #dcdcaa;&quot;&gt;fontCharConstuctor()&lt;/span&gt;&lt;/div&gt;&lt;/div&gt;" style="shape=process;whiteSpace=wrap;html=1;backgroundOutline=1;labelBackgroundColor=none;flipH=1;flipV=1;shadow=0;labelBorderColor=none;fillColor=#333333;fontSize=12;" vertex="1" parent="1">
                    <mxGeometry x="-2366.37" y="-1120" width="200" height="58" as="geometry"/>
                </mxCell>
                <mxCell id="686" value="yes" style="edgeStyle=none;html=1;labelBackgroundColor=none;fontSize=12;" edge="1" parent="1" source="688" target="690">
                    <mxGeometry x="0.0127" y="19" relative="1" as="geometry">
                        <mxPoint as="offset"/>
                    </mxGeometry>
                </mxCell>
                <mxCell id="687" value="no" style="edgeStyle=none;html=1;labelBackgroundColor=none;entryX=0.5;entryY=0;entryDx=0;entryDy=0;" edge="1" parent="1" source="688" target="694">
                    <mxGeometry x="-0.0659" y="16" relative="1" as="geometry">
                        <mxPoint as="offset"/>
                        <mxPoint x="-2264.99" y="-824.5000000000002" as="targetPoint"/>
                    </mxGeometry>
                </mxCell>
                <mxCell id="688" value="&lt;div style=&quot;font-family: Menlo, Monaco, &amp;quot;Courier New&amp;quot;, monospace; font-weight: normal; font-size: 12px; line-height: 18px;&quot;&gt;&lt;span style=&quot;color: rgb(204, 204, 204); font-size: 12px;&quot;&gt;&lt;/span&gt;&lt;div style=&quot;line-height: 18px; font-size: 12px;&quot;&gt;&lt;span style=&quot;color: rgb(197, 134, 192); font-size: 12px;&quot;&gt;if&lt;/span&gt;&lt;span style=&quot;color: rgb(204, 204, 204); font-size: 12px;&quot;&gt;(&lt;/span&gt;&lt;/div&gt;&lt;div style=&quot;line-height: 18px; font-size: 12px;&quot;&gt;&lt;span style=&quot;color: rgb(156, 220, 254);&quot;&gt;!&lt;/span&gt;&lt;span style=&quot;background-color: rgb(31, 31, 31); color: rgb(156, 220, 254);&quot;&gt;&amp;nbsp;fontChar&lt;/span&gt;&lt;/div&gt;&lt;div style=&quot;line-height: 18px; font-size: 12px;&quot;&gt;&lt;span style=&quot;color: rgb(204, 204, 204);&quot;&gt;)&lt;/span&gt;&lt;br&gt;&lt;/div&gt;&lt;/div&gt;" style="rhombus;whiteSpace=wrap;html=1;labelBackgroundColor=none;flipH=1;flipV=1;shadow=0;labelBorderColor=none;fillColor=#333333;fontSize=12;" vertex="1" parent="1">
                    <mxGeometry x="-2366.365" y="-1035.5" width="202.75" height="163" as="geometry"/>
                </mxCell>
                <mxCell id="689" style="edgeStyle=none;html=1;entryX=0.5;entryY=1;entryDx=0;entryDy=0;entryPerimeter=0;labelBackgroundColor=none;fontSize=12;" edge="1" parent="1" source="690" target="691">
                    <mxGeometry relative="1" as="geometry"/>
                </mxCell>
                <mxCell id="690" value="&lt;div style=&quot;color: rgb(204, 204, 204); font-family: Menlo, Monaco, &amp;quot;Courier New&amp;quot;, monospace; line-height: 18px; font-size: 12px;&quot;&gt;&lt;span style=&quot;color: rgb(220, 220, 170); font-size: 12px;&quot;&gt;ErrorHandler&lt;/span&gt;()&lt;/div&gt;" style="shape=process;whiteSpace=wrap;html=1;backgroundOutline=1;labelBackgroundColor=none;flipH=1;flipV=1;shadow=0;labelBorderColor=none;fillColor=#333333;fontSize=12;" vertex="1" parent="1">
                    <mxGeometry x="-2102.48" y="-983" width="150" height="58" as="geometry"/>
                </mxCell>
                <mxCell id="691" value="&lt;div style=&quot;color: rgb(204, 204, 204); font-family: Menlo, Monaco, &amp;quot;Courier New&amp;quot;, monospace; line-height: 18px; font-size: 12px;&quot;&gt;&lt;div style=&quot;line-height: 18px; font-size: 12px;&quot;&gt;&lt;div style=&quot;line-height: 18px; font-size: 12px;&quot;&gt;&lt;div style=&quot;line-height: 18px; font-size: 12px;&quot;&gt;&lt;div style=&quot;line-height: 18px; font-size: 12px;&quot;&gt;&lt;div style=&quot;line-height: 18px;&quot;&gt;&lt;div style=&quot;line-height: 18px;&quot;&gt;&lt;div style=&quot;background-color: rgb(31, 31, 31); line-height: 18px;&quot;&gt;&lt;span style=&quot;color: #4fc1ff;&quot;&gt;ERROR_MEMORY_ALLOCATION_FAILED&lt;/span&gt;&lt;/div&gt;&lt;/div&gt;&lt;/div&gt;&lt;/div&gt;&lt;/div&gt;&lt;/div&gt;&lt;/div&gt;&lt;/div&gt;" style="strokeWidth=2;html=1;shape=mxgraph.flowchart.terminator;whiteSpace=wrap;labelBackgroundColor=none;flipH=1;flipV=1;shadow=0;labelBorderColor=none;fillColor=#333333;fontSize=12;" vertex="1" parent="1">
                    <mxGeometry x="-2142.47" y="-884.5" width="230" height="60" as="geometry"/>
                </mxCell>
                <mxCell id="696" value="no" style="edgeStyle=none;html=1;labelBackgroundColor=none;" edge="1" parent="1" source="694" target="695">
                    <mxGeometry x="-0.1896" y="-7" relative="1" as="geometry">
                        <mxPoint as="offset"/>
                    </mxGeometry>
                </mxCell>
                <mxCell id="699" value="yes" style="edgeStyle=none;html=1;entryX=0.5;entryY=0;entryDx=0;entryDy=0;labelBackgroundColor=none;" edge="1" parent="1" source="694" target="698">
                    <mxGeometry x="0.1946" y="15" relative="1" as="geometry">
                        <mxPoint as="offset"/>
                    </mxGeometry>
                </mxCell>
                <mxCell id="694" value="&lt;div style=&quot;font-family: Menlo, Monaco, &amp;quot;Courier New&amp;quot;, monospace; font-weight: normal; font-size: 12px; line-height: 18px;&quot;&gt;&lt;span style=&quot;color: rgb(204, 204, 204); font-size: 12px;&quot;&gt;&lt;/span&gt;&lt;div style=&quot;line-height: 18px; font-size: 12px;&quot;&gt;&lt;div style=&quot;color: rgb(204, 204, 204); line-height: 18px;&quot;&gt;&lt;span style=&quot;color: #c586c0;&quot;&gt;for&lt;/span&gt; (&lt;span style=&quot;color: #569cd6;&quot;&gt;int&lt;/span&gt; &lt;span style=&quot;color: #9cdcfe;&quot;&gt;i&lt;/span&gt; &lt;span style=&quot;color: #d4d4d4;&quot;&gt;=&lt;/span&gt; &lt;span style=&quot;color: #b5cea8;&quot;&gt;0&lt;/span&gt;; &lt;span style=&quot;color: #9cdcfe;&quot;&gt;i&lt;/span&gt; &lt;span style=&quot;color: #d4d4d4;&quot;&gt;&amp;lt;&lt;/span&gt; &lt;span style=&quot;color: #9cdcfe;&quot;&gt;numStrokes&lt;/span&gt;; &lt;span style=&quot;color: #9cdcfe;&quot;&gt;i&lt;/span&gt;&lt;span style=&quot;color: #d4d4d4;&quot;&gt;++&lt;/span&gt;)&lt;/div&gt;&lt;/div&gt;&lt;/div&gt;" style="rhombus;whiteSpace=wrap;html=1;labelBackgroundColor=none;flipH=1;flipV=1;shadow=0;labelBorderColor=none;fillColor=#333333;fontSize=12;" vertex="1" parent="1">
                    <mxGeometry x="-2366.375" y="-824.5" width="202.75" height="163" as="geometry"/>
                </mxCell>
                <mxCell id="697" style="edgeStyle=none;html=1;entryX=0;entryY=0.5;entryDx=0;entryDy=0;labelBackgroundColor=none;" edge="1" parent="1" source="695" target="676">
                    <mxGeometry relative="1" as="geometry">
                        <Array as="points">
                            <mxPoint x="-2500" y="-1425"/>
                        </Array>
                    </mxGeometry>
                </mxCell>
                <mxCell id="695" value="&lt;div style=&quot;font-family: Menlo, Monaco, &amp;quot;Courier New&amp;quot;, monospace; line-height: 18px; font-size: 12px;&quot;&gt;&lt;div style=&quot;background-color: rgb(31, 31, 31); line-height: 18px;&quot;&gt;&lt;div style=&quot;line-height: 18px;&quot;&gt;&lt;span style=&quot;color: rgb(156, 220, 254);&quot;&gt;self&lt;/span&gt;&lt;font color=&quot;#cccccc&quot;&gt;.&lt;/font&gt;&lt;span style=&quot;color: rgb(220, 220, 170);&quot;&gt;insert&lt;/span&gt;&lt;font color=&quot;#cccccc&quot;&gt;(&lt;/font&gt;&lt;span style=&quot;color: rgb(156, 220, 254);&quot;&gt;self&lt;/span&gt;&lt;font color=&quot;#cccccc&quot;&gt;, &lt;/font&gt;&lt;span style=&quot;color: rgb(156, 220, 254);&quot;&gt;fontChar&lt;/span&gt;&lt;font color=&quot;#cccccc&quot;&gt;)&lt;/font&gt;&lt;/div&gt;&lt;/div&gt;&lt;/div&gt;" style="shape=process;whiteSpace=wrap;html=1;backgroundOutline=1;labelBackgroundColor=none;flipH=1;flipV=1;shadow=0;labelBorderColor=none;fillColor=#333333;fontSize=12;" vertex="1" parent="1">
                    <mxGeometry x="-2600" y="-772" width="200" height="58" as="geometry"/>
                </mxCell>
                <mxCell id="700" value="yes" style="edgeStyle=none;html=1;entryX=1;entryY=0.5;entryDx=0;entryDy=0;labelBackgroundColor=none;exitX=1;exitY=0.5;exitDx=0;exitDy=0;" edge="1" parent="1" source="698" target="694">
                    <mxGeometry x="-0.8977" y="16" relative="1" as="geometry">
                        <Array as="points">
                            <mxPoint x="-2130" y="-544"/>
                            <mxPoint x="-2130" y="-743"/>
                        </Array>
                        <mxPoint as="offset"/>
                    </mxGeometry>
                </mxCell>
                <mxCell id="704" style="edgeStyle=none;html=1;labelBackgroundColor=none;" edge="1" parent="1" source="698" target="701">
                    <mxGeometry relative="1" as="geometry"/>
                </mxCell>
                <mxCell id="698" value="&lt;div style=&quot;font-family: Menlo, Monaco, &amp;quot;Courier New&amp;quot;, monospace; font-weight: normal; font-size: 12px; line-height: 18px;&quot;&gt;&lt;font color=&quot;#c586c0&quot;&gt;&lt;span style=&quot;font-size: 12px;&quot;&gt;&lt;/span&gt;&lt;/font&gt;&lt;div style=&quot;line-height: 18px; font-size: 12px;&quot;&gt;&lt;div style=&quot;background-color: rgb(31, 31, 31); line-height: 18px;&quot;&gt;&lt;font color=&quot;#c586c0&quot;&gt;if(&lt;/font&gt;&lt;/div&gt;&lt;div style=&quot;background-color: rgb(31, 31, 31); line-height: 18px;&quot;&gt;&lt;span style=&quot;color: rgb(212, 212, 212);&quot;&gt;!&lt;/span&gt;&lt;span style=&quot;color: rgb(220, 220, 170);&quot;&gt;fgets&lt;/span&gt;&lt;span style=&quot;color: rgb(204, 204, 204);&quot;&gt;(&lt;/span&gt;&lt;span style=&quot;color: rgb(156, 220, 254);&quot;&gt;line&lt;/span&gt;&lt;/div&gt;&lt;div style=&quot;background-color: rgb(31, 31, 31); line-height: 18px;&quot;&gt;&lt;font color=&quot;#c586c0&quot;&gt;)&lt;/font&gt;&lt;/div&gt;&lt;/div&gt;&lt;/div&gt;" style="rhombus;whiteSpace=wrap;html=1;labelBackgroundColor=none;flipH=1;flipV=1;shadow=0;labelBorderColor=none;fillColor=#333333;fontSize=12;" vertex="1" parent="1">
                    <mxGeometry x="-2366.365" y="-625.5" width="202.75" height="163" as="geometry"/>
                </mxCell>
                <mxCell id="703" style="edgeStyle=none;html=1;labelBackgroundColor=none;" edge="1" parent="1" source="701" target="702">
                    <mxGeometry relative="1" as="geometry"/>
                </mxCell>
                <mxCell id="701" value="&lt;div style=&quot;font-family: Menlo, Monaco, &amp;quot;Courier New&amp;quot;, monospace; font-weight: normal; font-size: 12px; line-height: 18px;&quot;&gt;&lt;div style=&quot;line-height: 18px; font-size: 12px;&quot;&gt;&lt;div style=&quot;line-height: 18px; font-size: 12px;&quot;&gt;&lt;div style=&quot;line-height: 18px;&quot;&gt;&lt;div style=&quot;line-height: 18px;&quot;&gt;&lt;div style=&quot;line-height: 18px;&quot;&gt;&lt;div style=&quot;line-height: 18px;&quot;&gt;&lt;div style=&quot;line-height: 18px;&quot;&gt;&lt;div style=&quot;line-height: 18px;&quot;&gt;&lt;div style=&quot;background-color: rgb(31, 31, 31); line-height: 18px;&quot;&gt;&lt;div style=&quot;line-height: 18px;&quot;&gt;&lt;div style=&quot;line-height: 18px;&quot;&gt;&lt;div style=&quot;line-height: 18px; color: rgb(204, 204, 204);&quot;&gt;&lt;div style=&quot;line-height: 18px;&quot;&gt;&lt;div style=&quot;line-height: 18px;&quot;&gt;&lt;span style=&quot;color: #dcdcaa;&quot;&gt;sscanf&lt;/span&gt;(&lt;span style=&quot;color: #9cdcfe;&quot;&gt;line)&lt;/span&gt;&lt;/div&gt;&lt;/div&gt;&lt;/div&gt;&lt;/div&gt;&lt;/div&gt;&lt;/div&gt;&lt;/div&gt;&lt;/div&gt;&lt;/div&gt;&lt;/div&gt;&lt;/div&gt;&lt;/div&gt;&lt;/div&gt;&lt;/div&gt;&lt;/div&gt;" style="rounded=1;whiteSpace=wrap;html=1;labelBackgroundColor=none;flipH=1;flipV=1;shadow=0;labelBorderColor=none;fillColor=#333333;fontSize=12;" vertex="1" parent="1">
                    <mxGeometry x="-2356.37" y="-430" width="180" height="60" as="geometry"/>
                </mxCell>
                <mxCell id="705" style="edgeStyle=none;html=1;labelBackgroundColor=none;entryX=1;entryY=0.5;entryDx=0;entryDy=0;" edge="1" parent="1" source="702" target="694">
                    <mxGeometry relative="1" as="geometry">
                        <mxPoint x="-2159.9999999999995" y="-740" as="targetPoint"/>
                        <Array as="points">
                            <mxPoint x="-2090" y="-301"/>
                            <mxPoint x="-2090" y="-743"/>
                        </Array>
                    </mxGeometry>
                </mxCell>
                <mxCell id="702" value="&lt;div style=&quot;font-family: Menlo, Monaco, &amp;quot;Courier New&amp;quot;, monospace; line-height: 18px; font-size: 12px;&quot;&gt;&lt;div style=&quot;background-color: rgb(31, 31, 31); line-height: 18px;&quot;&gt;&lt;div style=&quot;line-height: 18px;&quot;&gt;&lt;div style=&quot;line-height: 18px;&quot;&gt;&lt;span style=&quot;color: rgb(156, 220, 254);&quot;&gt;fontChar&lt;/span&gt;&lt;font color=&quot;#cccccc&quot;&gt;.&lt;/font&gt;&lt;span style=&quot;color: rgb(220, 220, 170);&quot;&gt;appendStroke&lt;/span&gt;&lt;font color=&quot;#cccccc&quot;&gt;(&lt;/font&gt;&lt;/div&gt;&lt;div style=&quot;line-height: 18px;&quot;&gt;&lt;span style=&quot;color: rgb(156, 220, 254);&quot;&gt;fontChar&lt;/span&gt;&lt;font color=&quot;#cccccc&quot;&gt;, &lt;/font&gt;&lt;span style=&quot;color: rgb(156, 220, 254);&quot;&gt;stroke&lt;/span&gt;&lt;font color=&quot;#cccccc&quot;&gt;)&lt;/font&gt;&lt;/div&gt;&lt;/div&gt;&lt;/div&gt;&lt;/div&gt;" style="shape=process;whiteSpace=wrap;html=1;backgroundOutline=1;labelBackgroundColor=none;flipH=1;flipV=1;shadow=0;labelBorderColor=none;fillColor=#333333;fontSize=12;" vertex="1" parent="1">
                    <mxGeometry x="-2375" y="-330" width="215" height="58" as="geometry"/>
                </mxCell>
            </root>
        </mxGraphModel>
    </diagram>
</mxfile>